<svg version="1.1" id="Layer_1" xmlns="http://www.w3.org/2000/svg" xmlns:xlink="http://www.w3.org/1999/xlink" x="0px" y="0px"
	 width="100%" viewBox="0 0 1041 1008" enable-background="new 0 0 1041 1008" xml:space="preserve">
<path fill="#FFFFFE" opacity="1.000000" stroke="none" 
	d="
M612.000000,1009.000000 
	C408.024811,1009.000000 204.549606,1009.000000 1.037207,1009.000000 
	C1.037207,673.065735 1.037207,337.131531 1.037207,1.098641 
	C347.891907,1.098641 694.783813,1.098641 1041.837891,1.098641 
	C1041.837891,336.999939 1041.837891,672.999939 1041.837891,1009.000000 
	C898.798096,1009.000000 755.649048,1009.000000 612.000000,1009.000000 
M948.815552,636.273071 
	C965.248901,583.313721 971.357422,529.289429 966.231201,473.973236 
	C962.550964,434.259369 954.127563,395.648926 939.455811,358.606110 
	C901.690674,263.257477 838.575989,189.642334 748.698303,139.802643 
	C661.110779,91.232887 567.444763,75.619881 469.070679,93.464691 
	C368.478271,111.711899 284.328400,160.488251 219.358231,239.363388 
	C135.478363,341.195282 104.095123,458.368774 127.511650,588.434143 
	C145.155685,686.436523 194.052322,767.579041 269.942841,831.890503 
	C333.217743,885.511230 406.220245,918.137268 488.650452,929.309387 
	C538.898010,936.119629 588.731750,933.954651 638.004150,922.337891 
	C732.282471,900.110168 810.398560,851.424988 872.296387,776.983948 
	C906.875061,735.397949 932.027466,688.525269 948.815552,636.273071 
z"/>
<path fill="#F57B17" opacity="1.000000" stroke="none" 
	d="
M948.672363,636.645081 
	C932.027466,688.525269 906.875061,735.397949 872.296387,776.983948 
	C810.398560,851.424988 732.282471,900.110168 638.004150,922.337891 
	C588.731750,933.954651 538.898010,936.119629 488.650452,929.309387 
	C406.220245,918.137268 333.217743,885.511230 269.942841,831.890503 
	C194.052322,767.579041 145.155685,686.436523 127.511650,588.434143 
	C104.095123,458.368774 135.478363,341.195282 219.358231,239.363388 
	C284.328400,160.488251 368.478271,111.711899 469.070679,93.464691 
	C567.444763,75.619881 661.110779,91.232887 748.698303,139.802643 
	C838.575989,189.642334 901.690674,263.257477 939.455811,358.606110 
	C954.127563,395.648926 962.550964,434.259369 966.231201,473.973236 
	C971.357422,529.289429 965.248901,583.313721 948.672363,636.645081 
M715.974609,219.991135 
	C715.974609,219.991135 715.841125,220.171600 715.730408,219.647095 
	C715.428833,219.485123 715.127319,219.323166 714.994446,219.104446 
	C714.994446,219.104446 714.850891,219.209671 714.666077,218.616013 
	C714.107056,218.409760 713.548035,218.203506 713.001709,217.998291 
	C713.001709,217.998291 713.005371,218.010605 712.790161,217.536041 
	C712.497498,217.361984 712.204895,217.187912 711.479858,216.858765 
	C711.207336,216.681656 711.039185,216.433731 710.792297,215.607620 
	C710.494019,215.424286 710.195679,215.240936 709.986877,215.077591 
	C709.986877,215.077591 709.908142,215.124557 709.917480,214.388672 
	C708.249573,213.282211 706.581665,212.175751 705.008850,211.030396 
	C705.008850,211.030396 704.933350,211.100342 704.926575,210.374313 
	C702.586853,208.942337 700.247070,207.510345 697.975830,206.003891 
	C697.975830,206.003891 697.949585,206.101578 697.765503,205.602310 
	C697.461304,205.442276 697.157166,205.282242 696.970154,205.132538 
	C696.970154,205.132538 696.871277,205.196289 696.706909,204.509903 
	C695.372742,203.298096 694.237061,201.645569 692.674133,200.941803 
	C674.322754,192.678070 655.518555,185.643066 634.947327,189.159729 
	C622.653381,191.261368 610.512512,194.582153 598.563416,198.212540 
	C594.011963,199.595367 590.189087,203.376022 585.997681,206.006180 
	C585.997681,206.006180 586.057434,206.038879 585.270508,205.994156 
	C580.048462,206.634323 576.290710,209.305710 573.996704,214.013275 
	C573.996704,214.013275 574.074341,214.054688 573.324158,214.007751 
	C572.246704,215.046173 571.169250,216.084595 569.986633,217.069199 
	C569.986633,217.069199 570.101257,217.093002 569.353516,217.020325 
	C567.596436,218.718338 565.839355,220.416351 564.006714,222.060669 
	C564.006714,222.060669 564.099121,222.053223 563.597412,222.220016 
	C563.412415,222.509079 563.227417,222.798141 563.010681,223.010818 
	C563.010681,223.010818 563.086609,223.043640 562.589539,223.208084 
	C562.399292,223.490509 562.208984,223.772934 562.005615,223.997772 
	C562.005615,223.997772 562.053162,224.032852 561.314087,223.996613 
	C559.698059,225.011154 557.790710,225.749237 556.518188,227.089844 
	C551.927307,231.926559 547.550171,236.966187 543.248596,241.755096 
	C539.584167,239.051132 536.227905,236.574570 532.915405,234.015121 
	C532.915405,234.015121 532.937317,234.106232 532.780396,233.601562 
	C532.494446,233.411835 532.208557,233.222107 531.999451,233.014175 
	C531.999451,233.014175 531.947266,233.073425 531.992920,232.326202 
	C531.012390,228.730331 529.049133,226.214325 524.472473,225.776947 
	C523.982117,225.200439 523.491699,224.623932 522.800781,223.564240 
	C522.510315,223.385864 522.219910,223.207489 521.995117,223.004822 
	C521.995117,223.004822 521.972290,223.070999 521.783630,222.579391 
	C521.489868,222.403763 521.196045,222.228119 520.993469,222.061966 
	C520.993469,222.061966 520.917664,222.113510 520.929688,221.399826 
	C518.611938,217.564072 515.984009,214.151611 511.008209,214.023758 
	C511.008209,214.023758 510.937836,214.092590 510.915466,213.352859 
	C509.571136,212.607162 508.226807,211.861450 506.946136,211.001999 
	C506.946136,211.001999 506.923737,211.130386 506.755829,210.621552 
	C506.449524,210.463715 506.143250,210.305878 505.979858,210.123917 
	C505.979858,210.123917 505.864014,210.211014 505.654266,209.606613 
	C505.069122,209.436707 504.483948,209.266800 503.998779,209.107529 
	C503.998779,209.107529 503.901672,209.135284 503.884155,208.404999 
	C502.233276,207.619827 500.582367,206.834641 498.992096,206.004608 
	C498.992096,206.004608 498.976288,206.078339 498.690491,205.535614 
	C498.123535,205.356628 497.556549,205.177643 497.000000,204.998474 
	C497.000000,204.998474 497.003296,205.007446 496.909698,204.311722 
	C493.231934,202.590332 489.554138,200.868927 485.973541,199.031662 
	C485.973541,199.031662 485.923340,199.174316 485.596863,198.554321 
	C484.701477,198.397507 483.806061,198.240692 483.004089,198.035889 
	C483.004089,198.035889 482.946777,198.123901 482.693237,197.441010 
	C480.009338,196.305771 477.392853,194.962555 474.631073,194.067673 
	C448.514893,185.605606 422.875946,186.999802 397.869049,198.278275 
	C394.981567,199.580551 392.659698,202.136887 389.988312,204.047653 
	C389.988312,204.047653 390.092133,204.077728 389.357605,204.018845 
	C388.588562,204.707947 387.819489,205.397049 386.996277,206.015839 
	C386.996277,206.015839 387.075439,206.055786 386.316833,206.010757 
	C384.675415,206.703018 382.666626,207.005325 381.451477,208.150070 
	C372.722198,216.373032 363.859283,224.492462 355.695435,233.256485 
	C352.857330,236.303268 351.875854,241.079559 350.009277,244.997620 
	C350.009277,244.997620 350.073944,245.040878 349.353516,245.100861 
	C348.588898,246.759369 347.824280,248.417877 347.021210,249.993271 
	C347.021210,249.993271 347.090088,250.053772 346.378967,250.097473 
	C341.910461,260.137085 335.881470,269.799438 333.341675,280.305298 
	C329.597290,295.793945 328.187378,311.863892 326.133820,327.731628 
	C325.661987,331.377258 324.110260,332.117737 320.989624,332.037842 
	C316.000275,331.910095 310.939758,331.479706 306.026123,332.101013 
	C294.912811,333.506165 283.856781,335.394592 272.817993,337.319153 
	C271.460876,337.555756 270.351166,339.211578 269.051575,340.200226 
	C269.051575,340.200226 269.115967,340.160217 268.323151,340.044617 
	C265.874481,341.357880 263.425842,342.671112 260.700592,344.127472 
	C260.700592,344.127472 260.390717,344.158264 259.562775,344.062775 
	C257.008331,344.782806 253.531921,344.026764 252.987549,348.062195 
	C252.987549,348.062195 253.089935,348.080444 252.353226,348.016785 
	C251.594910,348.716644 250.836594,349.416534 249.988495,350.046112 
	C249.988495,350.046112 250.096298,350.082733 249.358047,350.024689 
	C248.602478,350.726532 247.846893,351.428406 246.987274,352.064697 
	C246.987274,352.064697 247.106216,352.094971 246.351456,352.026428 
	C245.269531,353.063690 244.187622,354.100922 242.994659,355.101776 
	C242.994659,355.101776 243.110214,355.105682 242.355820,355.025879 
	C241.271927,356.062897 240.188034,357.099884 239.019669,358.090424 
	C239.019669,358.090424 239.113297,358.067413 238.607101,358.223572 
	C238.416824,358.509796 238.226547,358.796021 238.018250,359.000488 
	C238.018250,359.000488 238.078003,359.059174 237.336166,359.007660 
	C233.782288,361.983185 229.967712,364.708557 226.777451,368.033020 
	C225.012482,369.872223 224.292938,372.714630 223.100708,374.994537 
	C223.100708,374.994537 223.136200,375.099976 222.404694,375.118317 
	C221.964615,376.111389 221.524521,377.104492 221.046463,377.988556 
	C221.046463,377.988556 221.118408,378.079071 220.390549,378.118011 
	C219.956680,379.112061 219.522812,380.106140 219.057953,380.987213 
	C219.057953,380.987213 219.123779,381.084442 218.394135,381.114716 
	C217.621780,382.773285 216.849426,384.431854 216.014801,386.016327 
	C216.014801,386.016327 216.108459,386.040710 215.550354,386.323242 
	C215.380432,386.902435 215.210526,387.481598 215.007675,387.997498 
	C215.007675,387.997498 215.067642,388.036285 214.342957,388.072571 
	C209.451706,391.906250 208.805267,397.511688 208.035828,402.993530 
	C208.035828,402.993530 208.118484,403.047852 207.434494,403.306885 
	C206.887161,404.289520 206.090073,405.211090 205.832443,406.264526 
	C203.952759,413.950714 201.438751,421.579742 200.559280,429.388367 
	C199.395706,439.719666 198.581665,450.268433 199.340942,460.597015 
	C200.513626,476.549622 203.181168,492.458923 209.165497,507.415192 
	C214.554169,520.882812 220.789291,534.019165 226.938889,547.166992 
	C227.856384,549.128601 230.352020,550.352051 232.059540,552.012451 
	C232.059540,552.012451 232.083679,551.903748 232.022598,552.662598 
	C233.396210,554.404602 234.769821,556.146606 236.116699,557.997559 
	C236.116699,557.997559 236.110107,557.886902 236.028625,558.641296 
	C237.063202,559.727539 238.097763,560.813721 239.091949,561.981628 
	C239.091949,561.981628 239.064438,561.894775 239.217300,562.398376 
	C239.499969,562.590881 239.782639,562.783386 239.998947,562.991272 
	C239.998947,562.991272 240.041031,562.937622 240.002319,563.685730 
	C241.043274,564.759460 242.084229,565.833252 243.075714,567.012085 
	C243.075714,567.012085 243.093597,566.898254 243.022568,567.646729 
	C243.329422,568.562988 243.380814,569.719666 243.982224,570.358826 
	C250.899948,577.710999 257.668488,585.230347 264.990753,592.162354 
	C268.066803,595.074402 272.361115,596.699585 275.986908,598.937073 
	C275.986908,598.937073 276.088623,598.876526 276.090607,599.620911 
	C277.427612,600.383362 278.764618,601.145813 279.989105,601.922852 
	C279.989105,601.922852 280.092346,601.874329 280.075104,602.596008 
	C281.074310,603.875610 281.810791,605.621399 283.116425,606.357483 
	C290.303253,610.408813 297.505096,614.476379 304.958282,617.994995 
	C308.862122,619.837952 309.931641,621.932495 308.133423,625.746277 
	C307.073914,627.993347 306.018463,630.274963 305.296021,632.643250 
	C299.470032,651.742126 296.968658,671.165649 297.786407,691.235657 
	C298.412354,706.597656 300.371674,721.499451 306.129944,735.734680 
	C309.595062,744.300903 313.625153,752.644104 317.602234,760.991760 
	C318.199585,762.245483 319.897491,762.974915 321.017059,764.005127 
	C321.017059,764.005127 321.057556,763.924316 321.009705,764.687805 
	C325.970154,771.917908 330.681458,779.339966 336.024139,786.275635 
	C337.933411,788.754150 341.370178,790.055908 343.997101,791.899780 
	C343.997101,791.899780 344.106934,791.865662 344.077240,792.583557 
	C346.297668,796.563110 349.331970,799.425720 353.995850,799.895386 
	C353.995850,799.895386 354.106110,799.860413 354.092407,800.599365 
	C356.093628,801.702271 358.094849,802.805237 360.000183,803.900696 
	C360.000183,803.900696 360.093872,803.874329 360.082458,804.611328 
	C362.893311,808.996033 367.466736,810.010071 372.009857,810.970703 
	C372.009857,810.970703 372.063416,810.863281 372.292603,811.529419 
	C373.517792,812.349976 374.674866,813.303589 375.978485,813.970947 
	C393.727692,823.057251 412.931641,826.627441 432.528473,827.896057 
	C457.866974,829.536438 482.290680,824.443481 506.250549,816.473999 
	C516.262634,813.143921 526.435730,810.182251 536.709900,807.807007 
	C541.432495,806.715210 546.803650,806.449829 551.482666,807.531494 
	C563.877319,810.396606 576.003052,814.401917 588.333740,817.572937 
	C600.170166,820.616882 612.001587,824.313843 624.066528,825.678284 
	C639.754517,827.452454 655.552185,828.552917 671.523010,826.241089 
	C688.480957,823.786377 704.355530,818.702332 719.540710,811.103333 
	C721.267944,810.239075 722.457764,808.300903 724.009399,806.904724 
	C724.009399,806.904724 723.889709,806.894165 724.649048,806.969849 
	C726.413513,805.616272 728.178040,804.262695 730.005676,802.980225 
	C730.005676,802.980225 729.920471,802.938477 730.675659,802.988953 
	C732.755005,801.286072 734.834351,799.583252 737.013123,797.939026 
	C737.013123,797.939026 736.901367,797.912781 737.652161,797.982239 
	C739.068176,796.611328 740.484253,795.240479 742.011841,793.919373 
	C742.011841,793.919373 741.892334,793.900208 742.637573,793.975159 
	C748.165161,788.719238 753.738770,783.509949 759.161133,778.147644 
	C759.829651,777.486633 759.691284,776.009766 759.966125,775.009399 
	C759.966125,775.009399 759.894836,774.930725 760.589600,774.903748 
	C760.978943,774.198975 761.368286,773.494263 761.864319,772.781433 
	C761.864319,772.781433 761.784729,772.853027 762.390747,772.649292 
	C762.560791,772.064453 762.730896,771.479675 762.900024,771.004639 
	C762.900024,771.004639 762.862366,770.901123 763.593567,770.879639 
	C764.037170,769.889771 764.480835,768.899902 764.956360,768.011719 
	C764.956360,768.011719 764.892029,767.926392 765.624207,767.922607 
	C766.995728,765.547119 768.367188,763.171692 769.750427,760.830383 
	C769.750427,760.830383 769.766846,760.814026 770.473816,760.689331 
	C771.088074,760.141113 771.895996,759.705017 772.287842,759.028015 
	C779.969849,745.755859 784.945374,731.372864 787.837769,716.458923 
	C790.729980,701.546082 791.866699,686.457275 790.206177,671.097412 
	C788.579529,656.050598 786.143433,641.351196 780.668457,627.205200 
	C777.683716,619.493286 778.200195,618.136292 784.842102,613.462646 
	C785.337158,613.114319 785.577271,612.403625 786.004639,611.953857 
	C786.004639,611.953857 785.901062,611.903259 786.698608,611.980713 
	C790.281677,610.410034 793.955200,609.016113 797.432434,607.238403 
	C813.473511,599.037781 826.247131,586.761414 838.490784,573.877563 
	C839.376892,572.945129 839.446106,571.236450 839.906555,570.008240 
	C839.906555,570.008240 839.864441,569.894104 840.594482,569.918762 
	C842.023560,567.906006 843.452698,565.893188 844.884521,564.003418 
	C844.884521,564.003418 844.849304,563.884155 845.571289,563.881104 
	C846.050476,562.921814 846.529663,561.962524 847.136841,560.545044 
	C847.287964,560.243958 847.524475,560.043335 848.593201,559.926453 
	C849.376343,558.592285 850.159546,557.258118 850.983826,556.004517 
	C850.983826,556.004517 850.913940,555.947083 851.652527,555.922791 
	C852.404175,554.581665 853.155884,553.240479 853.920166,552.010620 
	C853.920166,552.010620 853.875000,551.907227 854.607361,551.915771 
	C856.054016,549.253235 857.500671,546.590698 858.986877,544.003052 
	C858.986877,544.003052 858.918091,543.953613 859.639587,543.891113 
	C860.060059,542.893127 860.480591,541.895142 860.982483,540.972961 
	C860.982483,540.972961 860.873962,540.948730 861.439758,540.671265 
	C861.605408,540.087463 861.770996,539.503662 861.966858,539.009460 
	C861.966858,539.009460 861.902283,538.940308 862.631287,538.887939 
	C863.022949,537.876038 863.414551,536.864197 863.886536,536.023987 
	C863.886536,536.023987 863.785461,535.858093 864.475098,535.697449 
	C867.609131,529.795776 870.966125,523.997620 873.776794,517.945740 
	C875.053528,515.196594 875.247986,511.944702 875.979248,509.000183 
	C875.979248,509.000183 875.896851,508.960083 876.568420,508.699127 
	C877.535583,506.811859 878.800415,505.017365 879.422302,503.022461 
	C883.961914,488.459290 887.608215,473.861603 888.341187,458.361755 
	C889.019958,444.007050 888.883484,429.874878 885.837891,415.926483 
	C884.354736,409.133850 881.198853,402.706482 878.936584,395.969391 
	C878.936584,395.969391 878.817627,396.124542 878.939026,395.327423 
	C875.880432,388.749176 872.880920,382.141998 869.686279,375.630463 
	C869.299377,374.842010 867.859436,374.570190 866.979248,373.994171 
	C866.979248,373.994171 866.937134,374.080963 866.986084,373.342346 
	C866.272827,372.602081 865.559509,371.861786 864.860229,371.020111 
	C864.860229,371.020111 864.877197,371.118378 864.967651,370.366516 
	C863.602417,368.942566 862.237183,367.518616 860.919861,365.990173 
	C860.919861,365.990173 860.907532,366.104004 860.937073,365.461731 
	C860.544922,365.035919 860.152771,364.610077 859.746460,364.230804 
	C859.746460,364.230804 859.697937,364.233490 859.855042,363.517181 
	C855.176697,358.765747 850.806335,353.643677 845.703003,349.403687 
	C842.702209,346.910492 838.536926,345.818939 834.979553,344.023468 
	C834.979553,344.023468 834.945923,344.130005 834.676514,343.562897 
	C834.097229,343.389130 833.518005,343.215363 833.002625,343.007599 
	C833.002625,343.007599 832.962463,343.067963 832.926575,342.335602 
	C832.155029,341.566620 831.518188,340.522034 830.592102,340.069092 
	C809.457703,329.731964 787.274658,324.846802 763.769470,328.189575 
	C758.785034,328.898438 758.089783,326.922729 757.948181,322.955109 
	C757.747681,317.338104 757.448914,311.706757 756.801331,306.126923 
	C754.941284,290.098907 750.075073,274.832611 743.945435,260.021820 
	C742.223145,255.860397 742.072266,250.321609 736.923523,247.971863 
	C736.923523,247.971863 736.837585,248.127884 736.949646,247.369308 
	C735.604919,245.596451 734.260193,243.823578 732.984741,241.996216 
	C732.984741,241.996216 732.944885,242.074753 732.991882,241.318573 
	C731.613037,239.582382 730.234192,237.846191 728.899658,236.023560 
	C728.899658,236.023560 728.926270,236.116943 728.783020,235.611862 
	C728.505798,235.413269 728.228516,235.214691 728.002991,235.004791 
	C728.002991,235.004791 727.971313,235.047318 727.996826,234.313766 
	C727.282349,233.579208 726.567810,232.844635 725.900696,231.989792 
	C725.900696,231.989792 725.886841,232.117569 725.968933,231.364578 
	C724.598755,229.946854 723.228516,228.529129 721.900757,227.024399 
	C721.900757,227.024399 721.928711,227.117020 721.772034,226.609238 
	C721.482544,226.422195 721.192993,226.235138 720.983154,226.013336 
	C720.983154,226.013336 720.952087,226.094513 720.773010,225.586884 
	C720.476868,225.400009 720.180786,225.213135 719.375488,224.783234 
	C718.917542,224.200104 718.459534,223.616974 717.972961,222.406158 
	C717.577942,221.988525 717.182922,221.570892 716.874756,221.001892 
	C716.874756,221.001892 716.836914,221.172241 716.729248,220.647415 
	C716.428101,220.485229 716.126953,220.323044 715.974609,219.991135 
z"/>
<path fill="#5A2D13" opacity="1.000000" stroke="none" 
	d="
M523.001343,224.047424 
	C523.491699,224.623932 523.982117,225.200439 524.876343,226.180130 
	C527.502625,228.746689 529.724915,230.910049 531.947266,233.073425 
	C531.947266,233.073425 531.999451,233.014175 532.041382,233.275162 
	C532.368042,233.726181 532.652649,233.916199 532.937317,234.106232 
	C532.937317,234.106232 532.915405,234.015121 532.966675,234.388519 
	C536.128235,238.547150 539.238525,242.332413 542.402405,246.182907 
	C549.185303,238.537338 555.619202,231.285095 562.053162,224.032852 
	C562.053162,224.032852 562.005615,223.997772 562.262268,223.945084 
	C562.708130,223.609467 562.897400,223.326553 563.086609,223.043640 
	C563.086609,223.043640 563.010681,223.010818 563.278687,222.967560 
	C563.730835,222.633942 563.914978,222.343567 564.099121,222.053223 
	C564.099121,222.053223 564.006714,222.060669 564.369019,222.014709 
	C566.521240,220.343506 568.311279,218.718246 570.101257,217.093002 
	C570.101257,217.093002 569.986633,217.069199 570.355103,217.032135 
	C571.840515,216.014954 572.957458,215.034821 574.074341,214.054688 
	C574.074341,214.054688 573.996704,214.013275 574.363037,213.979446 
	C578.505371,211.310043 582.281433,208.674454 586.057434,206.038879 
	C586.057434,206.038879 585.997681,206.006180 586.370239,205.979935 
	C590.161133,204.252411 593.520691,202.418671 597.007202,200.871002 
	C623.063293,189.304596 649.660339,186.270004 676.890564,196.406158 
	C683.698242,198.940247 690.218750,202.245483 696.871277,205.196289 
	C696.871277,205.196289 696.970154,205.132538 696.990723,205.382965 
	C697.324097,205.789459 697.636841,205.945511 697.949585,206.101562 
	C697.949585,206.101578 697.975830,206.003891 698.104004,206.332535 
	C700.465942,208.140900 702.699646,209.620621 704.933350,211.100342 
	C704.933350,211.100342 705.008850,211.030396 705.109009,211.343597 
	C706.775513,212.812714 708.341858,213.968628 709.908142,215.124542 
	C709.908142,215.124557 709.986877,215.077591 710.037842,215.316101 
	C710.384338,215.741394 710.679932,215.928207 710.975464,216.115005 
	C711.039185,216.433731 711.207336,216.681656 711.806824,217.171844 
	C712.424316,217.660156 712.714844,217.835373 713.005371,218.010590 
	C713.005371,218.010605 713.001709,217.998291 713.132446,218.264557 
	C713.792419,218.757111 714.321655,218.983383 714.850891,219.209656 
	C714.850891,219.209671 714.994446,219.104446 714.960327,219.398071 
	C715.231201,219.851654 715.536133,220.011642 715.841125,220.171600 
	C715.841125,220.171600 715.974609,219.991135 715.949158,220.341644 
	C716.228088,220.852188 716.532532,221.012207 716.836914,221.172241 
	C716.836914,221.172241 716.874756,221.001892 716.839478,221.378723 
	C717.203308,222.181656 717.602478,222.607758 718.001587,223.033859 
	C718.459534,223.616974 718.917542,224.200104 719.731506,225.150757 
	C720.375732,225.710358 720.663879,225.902435 720.952087,226.094513 
	C720.952087,226.094513 720.983154,226.013336 721.024719,226.283813 
	C721.353760,226.741867 721.641235,226.929443 721.928711,227.117020 
	C721.928711,227.117020 721.900757,227.024399 721.949707,227.387863 
	C723.294739,229.206741 724.590759,230.662155 725.886841,232.117584 
	C725.886841,232.117569 725.900696,231.989792 725.932068,232.358002 
	C726.632751,233.499924 727.302002,234.273621 727.971313,235.047318 
	C727.971313,235.047318 728.002991,235.004791 728.050659,235.262924 
	C728.374329,235.719696 728.650330,235.918320 728.926270,236.116943 
	C728.926270,236.116943 728.899658,236.023560 728.937012,236.398285 
	C730.297852,238.540253 731.621399,240.307480 732.944946,242.074738 
	C732.944885,242.074753 732.984741,241.996216 733.001587,242.359695 
	C734.291443,244.524750 735.564514,246.326324 736.837585,248.127899 
	C736.837585,248.127884 736.923523,247.971863 736.886536,248.413269 
	C749.681091,274.638611 756.527832,301.879272 756.097351,330.990784 
	C758.097900,330.895721 759.432678,330.975800 760.713135,330.749115 
	C772.760864,328.616302 784.740906,328.751587 796.836121,330.787476 
	C809.594666,332.934998 821.397339,337.575256 832.962463,343.067963 
	C832.962463,343.067963 833.002625,343.007599 833.141113,343.272888 
	C833.835022,343.735443 834.390503,343.932739 834.945923,344.130005 
	C834.945923,344.130005 834.979553,344.023468 835.108582,344.349945 
	C839.661377,347.791962 844.239502,350.713776 848.463867,354.079529 
	C852.403992,357.218842 855.968201,360.830017 859.697937,364.233521 
	C859.697937,364.233490 859.746460,364.230804 859.743530,364.510254 
	C860.129517,365.227814 860.518555,365.665894 860.907532,366.104004 
	C860.907532,366.104004 860.919861,365.990173 860.962769,366.364014 
	C862.296204,368.198029 863.586670,369.658203 864.877197,371.118378 
	C864.877197,371.118378 864.860229,371.020111 864.906250,371.379089 
	C865.613892,372.519012 866.275513,373.299988 866.937134,374.080963 
	C866.937134,374.080963 866.979248,373.994171 867.005493,374.370941 
	C870.960388,381.873322 874.888977,388.998932 878.817627,396.124542 
	C878.817627,396.124542 878.936584,395.969391 878.845520,396.437866 
	C878.875244,397.558441 878.910461,398.240814 879.129089,398.858246 
	C888.333923,424.860077 889.346619,451.417542 883.933228,478.240814 
	C881.842712,488.599304 878.609436,498.727142 875.896851,508.960083 
	C875.896851,508.960083 875.979248,509.000183 875.681519,509.181641 
	C871.517700,518.194763 867.651550,527.026428 863.785400,535.858093 
	C863.785461,535.858093 863.886536,536.023987 863.563538,536.078125 
	C862.794434,537.068298 862.348328,538.004272 861.902283,538.940308 
	C861.902283,538.940308 861.966858,539.009460 861.698975,539.132141 
	C861.245300,539.819458 861.059631,540.384094 860.873962,540.948730 
	C860.873962,540.948730 860.982483,540.972961 860.660767,541.081543 
	C859.865356,542.111328 859.391724,543.032471 858.918091,543.953613 
	C858.918091,543.953613 858.986877,544.003052 858.680664,544.142151 
	C856.874573,546.823242 855.374817,549.365234 853.875000,551.907227 
	C853.875000,551.907227 853.920166,552.010620 853.619385,552.092041 
	C852.517090,553.431274 851.715515,554.689148 850.913940,555.947083 
	C850.913940,555.947083 850.983826,556.004517 850.675476,556.115479 
	C849.526855,557.465332 848.686523,558.704285 847.846191,559.943237 
	C847.524475,560.043335 847.287964,560.243958 846.796753,560.921143 
	C845.920898,562.159485 845.385071,563.021790 844.849243,563.884155 
	C844.849304,563.884155 844.884521,564.003418 844.585327,564.085083 
	C842.812256,566.075867 841.338318,567.984985 839.864441,569.894104 
	C839.864441,569.894104 839.906555,570.008240 839.598511,570.087280 
	C832.761169,576.536743 826.779968,583.627808 819.573975,589.108643 
	C808.802124,597.301697 797.168274,604.361450 785.901062,611.903259 
	C785.901062,611.903259 786.004639,611.953857 785.597351,611.927490 
	C781.760620,613.410522 778.331238,614.919861 775.872498,616.002014 
	C779.550842,629.734314 783.781555,642.534363 786.332275,655.660767 
	C792.039917,685.033752 789.687439,713.893677 778.253418,741.755859 
	C775.614441,748.186523 772.605530,754.465332 769.766846,760.814026 
	C769.766846,760.814026 769.750427,760.830383 769.432129,760.906067 
	C767.706543,763.296631 766.299255,765.611511 764.892029,767.926392 
	C764.892029,767.926392 764.956360,768.011719 764.662109,768.109253 
	C763.865967,769.104919 763.364197,770.002991 762.862366,770.901123 
	C762.862366,770.901123 762.900024,771.004639 762.637512,771.100342 
	C762.178284,771.748352 761.981506,772.300720 761.784729,772.853027 
	C761.784729,772.853027 761.864319,772.781433 761.516235,772.857544 
	C760.743713,773.599304 760.319275,774.265015 759.894836,774.930725 
	C759.894836,774.930725 759.966125,775.009399 759.648193,775.113342 
	C753.517578,781.444946 747.704956,787.672546 741.892334,793.900146 
	C741.892334,793.900208 742.011841,793.919373 741.635010,793.960938 
	C739.805969,795.305908 738.353638,796.609375 736.901367,797.912781 
	C736.901367,797.912781 737.013123,797.939026 736.631348,797.976685 
	C734.139893,799.655762 732.030212,801.297119 729.920532,802.938477 
	C729.920471,802.938477 730.005676,802.980225 729.640259,803.001526 
	C727.479797,804.313293 725.684753,805.603760 723.889709,806.894165 
	C723.889709,806.894165 724.009399,806.904724 723.601501,806.941284 
	C691.120300,825.165161 656.716614,829.532166 620.945129,822.931763 
	C604.007690,819.806580 587.118103,815.626465 570.799866,810.155396 
	C552.957031,804.173218 535.969849,803.423828 518.442200,810.653748 
	C510.335175,813.997742 501.692169,816.089600 493.218414,818.488708 
	C463.775818,826.824463 433.998199,829.257812 404.064728,821.745544 
	C393.173279,819.012146 382.717804,814.541382 372.063416,810.863281 
	C372.063416,810.863281 372.009857,810.970703 371.884827,810.642090 
	C367.871155,808.167053 363.982513,806.020691 360.093872,803.874329 
	C360.093872,803.874329 360.000183,803.900696 359.893921,803.609314 
	C357.893829,802.165405 355.999969,801.012939 354.106110,799.860413 
	C354.106110,799.860413 353.995850,799.895386 353.901825,799.596558 
	C350.574188,796.820374 347.340576,794.343018 344.106934,791.865662 
	C344.106934,791.865662 343.997101,791.899780 343.924530,791.590027 
	C336.253845,782.161621 328.655701,773.042969 321.057556,763.924316 
	C321.057556,763.924316 321.017059,764.005127 320.995239,763.628479 
	C320.654846,762.669128 320.351746,762.077332 320.015472,761.505066 
	C302.177582,731.146240 296.209076,698.520874 300.649963,663.672119 
	C302.452393,649.528015 306.280640,636.042542 311.199036,622.779907 
	C311.980316,620.673096 312.372681,619.246582 309.863037,617.928223 
	C299.882446,612.685486 290.006836,607.242859 280.092346,601.874329 
	C280.092346,601.874329 279.989105,601.922852 279.901245,601.625122 
	C278.571808,600.510437 277.330231,599.693481 276.088623,598.876526 
	C276.088623,598.876526 275.986908,598.937073 275.891510,598.625366 
	C268.807404,592.053894 261.691223,585.928894 254.877197,579.484375 
	C250.709473,575.542603 247.005722,571.110229 243.093597,566.898254 
	C243.093597,566.898254 243.075714,567.012085 243.041336,566.641541 
	C242.018326,565.159851 241.029678,564.048767 240.041031,562.937622 
	C240.041031,562.937622 239.998947,562.991272 239.952850,562.732117 
	C239.625992,562.280212 239.345215,562.087524 239.064438,561.894775 
	C239.064438,561.894775 239.091949,561.981628 239.056183,561.621948 
	C238.050323,560.137207 237.080215,559.012024 236.110107,557.886902 
	C236.110107,557.886902 236.116699,557.997559 236.072113,557.611206 
	C234.712906,555.451111 233.398300,553.677429 232.083679,551.903748 
	C232.083679,551.903748 232.059540,552.012451 232.025818,551.621094 
	C211.144150,517.848022 199.567017,481.673981 201.323044,442.135162 
	C201.905029,429.031281 205.759949,416.072815 208.118484,403.047852 
	C208.118484,403.047852 208.035828,402.993530 208.333939,402.822021 
	C210.777252,397.779083 212.922455,392.907684 215.067657,388.036285 
	C215.067642,388.036285 215.007675,387.997498 215.270920,387.857178 
	C215.725586,387.158173 215.917023,386.599426 216.108459,386.040710 
	C216.108459,386.040710 216.014801,386.016327 216.330139,385.883423 
	C217.471588,384.195160 218.297668,382.639801 219.123764,381.084442 
	C219.123779,381.084442 219.057953,380.987213 219.351318,380.892639 
	C220.135910,379.891724 220.627151,378.985413 221.118408,378.079071 
	C221.118408,378.079071 221.046463,377.988556 221.345093,377.895294 
	C222.141205,376.901337 222.638702,376.000671 223.136200,375.099976 
	C223.136200,375.099976 223.100708,374.994537 223.402252,374.902954 
	C228.495193,369.560638 233.286591,364.309906 238.078003,359.059174 
	C238.078003,359.059174 238.018250,359.000488 238.281952,358.964050 
	C238.734879,358.640869 238.924088,358.354126 239.113297,358.067413 
	C239.113297,358.067413 239.019669,358.090424 239.378540,358.050751 
	C240.861679,357.042633 241.985947,356.074158 243.110214,355.105682 
	C243.110214,355.105682 242.994659,355.101776 243.367767,355.061951 
	C244.862656,354.046387 245.984436,353.070679 247.106216,352.094971 
	C247.106216,352.094971 246.987274,352.064697 247.350357,352.047363 
	C248.507721,351.380920 249.302017,350.731842 250.096313,350.082733 
	C250.096298,350.082733 249.988495,350.046112 250.347504,350.035858 
	C251.500977,349.377228 252.295456,348.728821 253.089935,348.080444 
	C253.089935,348.080444 252.987549,348.062195 253.379852,348.039490 
	C255.978348,346.730591 258.184509,345.444427 260.390717,344.158264 
	C260.390717,344.158264 260.700592,344.127472 261.195435,344.022400 
	C264.165527,342.664917 266.640747,341.412567 269.115967,340.160217 
	C269.115967,340.160217 269.051575,340.200226 269.485413,340.211761 
	C285.246063,335.439270 300.832947,332.598663 316.974792,333.988495 
	C320.728668,334.311676 324.474274,334.731445 328.897003,335.174164 
	C328.897003,332.507874 328.752075,330.388458 328.921387,328.294434 
	C329.775299,317.734192 330.242371,307.114166 331.726166,296.639954 
	C334.047729,280.251862 340.208160,265.004425 347.090088,250.053772 
	C347.090088,250.053772 347.021210,249.993271 347.325317,249.864960 
	C348.444244,248.171402 349.259094,246.606140 350.073975,245.040894 
	C350.073944,245.040878 350.009277,244.997620 350.315857,244.854767 
	C352.554840,241.830902 354.464142,238.934097 356.423645,236.071640 
	C364.657654,224.043350 375.622192,214.799057 387.075439,206.055786 
	C387.075439,206.055786 386.996277,206.015839 387.336975,206.003601 
	C388.482513,205.353485 389.287323,204.715622 390.092133,204.077728 
	C390.092133,204.077728 389.988312,204.047653 390.386627,204.026520 
	C393.761688,202.535492 396.703491,200.989212 399.720917,199.608093 
	C419.152740,190.713730 439.410797,187.952957 460.399384,192.122940 
	C468.012115,193.635422 475.436462,196.095947 482.946777,198.123901 
	C482.946777,198.123901 483.004089,198.035889 483.167664,198.322327 
	C484.195282,198.797287 485.059326,198.985794 485.923340,199.174316 
	C485.923340,199.174316 485.973541,199.031662 486.094421,199.382996 
	C489.811310,201.492035 493.407288,203.249741 497.003296,205.007446 
	C497.003296,205.007446 497.000000,204.998474 497.164948,205.242401 
	C497.878693,205.683685 498.427490,205.881012 498.976288,206.078339 
	C498.976288,206.078339 498.992096,206.004608 499.131683,206.311081 
	C500.814728,207.456802 502.358215,208.296036 503.901672,209.135284 
	C503.901672,209.135284 503.998779,209.107529 504.095215,209.368591 
	C504.749115,209.823456 505.306549,210.017227 505.864014,210.211014 
	C505.864014,210.211014 505.979858,210.123917 505.979950,210.395386 
	C506.294617,210.821350 506.609161,210.975861 506.923737,211.130386 
	C506.923737,211.130386 506.946136,211.001999 507.062469,211.346848 
	C508.431793,212.491989 509.684814,213.292297 510.937836,214.092590 
	C510.937836,214.092590 511.008209,214.023758 511.120544,214.340302 
	C514.461121,217.142395 517.689392,219.627960 520.917664,222.113510 
	C520.917664,222.113510 520.993469,222.061966 521.034546,222.307983 
	C521.374573,222.726334 521.673401,222.898666 521.972290,223.070999 
	C521.972290,223.070999 521.995117,223.004822 522.062561,223.258270 
	C522.420471,223.690292 522.710876,223.868866 523.001343,224.047424 
M819.637695,357.790375 
	C797.218079,347.129974 774.164917,345.172852 750.281433,352.299530 
	C742.170959,354.719635 737.237244,350.333801 736.948181,341.885834 
	C736.505432,328.945923 736.692688,315.865112 734.778687,303.119476 
	C730.638000,275.546234 720.478760,250.597717 699.054565,231.435043 
	C677.006348,211.714203 651.477295,204.589355 622.773804,211.732300 
	C591.723206,219.459305 569.318054,239.092880 552.659241,265.785309 
	C547.014954,274.829163 538.803833,275.088593 533.111145,266.080200 
	C522.372925,249.087326 508.753540,234.889450 491.719238,224.215073 
	C477.564178,215.344971 462.143616,209.476685 445.288422,209.147476 
	C411.684723,208.491165 386.655762,224.180237 368.780640,251.682480 
	C350.516998,279.782501 346.152252,311.318512 348.182892,344.049805 
	C348.823151,354.370178 344.219269,358.844604 334.219147,356.203796 
	C320.347900,352.540771 306.282318,351.389282 292.220306,354.045319 
	C262.692322,359.622528 241.360001,376.085052 228.997101,403.639709 
	C217.616348,429.005341 217.879242,455.374237 223.610428,481.846954 
	C229.317703,508.209473 240.261887,532.329956 257.271698,553.470642 
	C275.569214,576.211792 297.539978,594.008850 325.454102,603.719482 
	C335.280792,607.138000 337.383545,612.258545 332.654968,621.680054 
	C322.773682,641.368042 318.407745,662.353455 318.033722,684.232178 
	C317.748932,700.890442 321.139923,716.949829 327.024109,732.457458 
	C339.581665,765.552673 362.472198,788.184753 395.983063,799.902222 
	C423.893188,809.661438 452.184052,809.166870 480.453400,802.184021 
	C495.925385,798.362244 511.015930,793.017822 526.423462,788.902893 
	C533.048401,787.133484 540.268188,785.141968 546.818298,786.070129 
	C559.066528,787.805725 571.145081,791.176514 583.076416,794.621033 
	C609.334534,802.201660 635.555542,808.956360 663.377869,806.187683 
	C682.444519,804.290344 700.443298,799.281677 716.397095,788.873840 
	C749.503784,767.275818 766.145813,735.421021 769.766357,696.828552 
	C772.381226,668.955933 766.805664,642.218628 753.992065,617.135498 
	C749.651062,608.637878 751.766785,603.757751 760.865112,600.930359 
	C783.154968,594.003540 802.036682,581.507812 818.228516,565.006409 
	C834.237122,548.691772 846.497803,529.765503 855.198792,508.577545 
	C866.747192,480.455933 872.030701,451.447693 865.887573,421.298553 
	C860.239746,393.580048 846.477722,371.253815 819.637695,357.790375 
z"/>
<path fill="#DD7B30" opacity="1.000000" stroke="none" 
	d="
M372.177979,811.196411 
	C382.717804,814.541382 393.173279,819.012146 404.064728,821.745544 
	C433.998199,829.257812 463.775818,826.824463 493.218414,818.488708 
	C501.692169,816.089600 510.335175,813.997742 518.442200,810.653748 
	C535.969849,803.423828 552.957031,804.173218 570.799866,810.155396 
	C587.118103,815.626465 604.007690,819.806580 620.945129,822.931763 
	C656.716614,829.532166 691.120300,825.165161 723.545166,806.919189 
	C722.457764,808.300903 721.267944,810.239075 719.540710,811.103333 
	C704.355530,818.702332 688.480957,823.786377 671.523010,826.241089 
	C655.552185,828.552917 639.754517,827.452454 624.066528,825.678284 
	C612.001587,824.313843 600.170166,820.616882 588.333740,817.572937 
	C576.003052,814.401917 563.877319,810.396606 551.482666,807.531494 
	C546.803650,806.449829 541.432495,806.715210 536.709900,807.807007 
	C526.435730,810.182251 516.262634,813.143921 506.250549,816.473999 
	C482.290680,824.443481 457.866974,829.536438 432.528473,827.896057 
	C412.931641,826.627441 393.727692,823.057251 375.978485,813.970947 
	C374.674866,813.303589 373.517792,812.349976 372.177979,811.196411 
z"/>
<path fill="#DD7B30" opacity="1.000000" stroke="none" 
	d="
M280.083740,602.235168 
	C290.006836,607.242859 299.882446,612.685486 309.863037,617.928223 
	C312.372681,619.246582 311.980316,620.673096 311.199036,622.779907 
	C306.280640,636.042542 302.452393,649.528015 300.649963,663.672119 
	C296.209076,698.520874 302.177582,731.146240 320.015472,761.505066 
	C320.351746,762.077332 320.654846,762.669128 321.029846,763.599365 
	C319.897491,762.974915 318.199585,762.245483 317.602234,760.991760 
	C313.625153,752.644104 309.595062,744.300903 306.129944,735.734680 
	C300.371674,721.499451 298.412354,706.597656 297.786407,691.235657 
	C296.968658,671.165649 299.470032,651.742126 305.296021,632.643250 
	C306.018463,630.274963 307.073914,627.993347 308.133423,625.746277 
	C309.931641,621.932495 308.862122,619.837952 304.958282,617.994995 
	C297.505096,614.476379 290.303253,610.408813 283.116425,606.357483 
	C281.810791,605.621399 281.074310,603.875610 280.083740,602.235168 
z"/>
<path fill="#DD7B30" opacity="1.000000" stroke="none" 
	d="
M832.944519,342.701782 
	C821.397339,337.575256 809.594666,332.934998 796.836121,330.787476 
	C784.740906,328.751587 772.760864,328.616302 760.713135,330.749115 
	C759.432678,330.975800 758.097900,330.895721 756.097351,330.990784 
	C756.527832,301.879272 749.681091,274.638611 736.832886,248.485992 
	C742.072266,250.321609 742.223145,255.860397 743.945435,260.021820 
	C750.075073,274.832611 754.941284,290.098907 756.801331,306.126923 
	C757.448914,311.706757 757.747681,317.338104 757.948181,322.955109 
	C758.089783,326.922729 758.785034,328.898438 763.769470,328.189575 
	C787.274658,324.846802 809.457703,329.731964 830.592102,340.069092 
	C831.518188,340.522034 832.155029,341.566620 832.944519,342.701782 
z"/>
<path fill="#DD7B30" opacity="1.000000" stroke="none" 
	d="
M346.734528,250.075623 
	C340.208160,265.004425 334.047729,280.251862 331.726166,296.639954 
	C330.242371,307.114166 329.775299,317.734192 328.921387,328.294434 
	C328.752075,330.388458 328.897003,332.507874 328.897003,335.174164 
	C324.474274,334.731445 320.728668,334.311676 316.974792,333.988495 
	C300.832947,332.598663 285.246063,335.439270 269.523041,340.216522 
	C270.351166,339.211578 271.460876,337.555756 272.817993,337.319153 
	C283.856781,335.394592 294.912811,333.506165 306.026123,332.101013 
	C310.939758,331.479706 316.000275,331.910095 320.989624,332.037842 
	C324.110260,332.117737 325.661987,331.377258 326.133820,327.731628 
	C328.187378,311.863892 329.597290,295.793945 333.341675,280.305298 
	C335.881470,269.799438 341.910461,260.137085 346.734528,250.075623 
z"/>
<path fill="#DD7B30" opacity="1.000000" stroke="none" 
	d="
M207.776489,403.177368 
	C205.759949,416.072815 201.905029,429.031281 201.323044,442.135162 
	C199.567017,481.673981 211.144150,517.848022 232.054840,551.573364 
	C230.352020,550.352051 227.856384,549.128601 226.938889,547.166992 
	C220.789291,534.019165 214.554169,520.882812 209.165497,507.415192 
	C203.181168,492.458923 200.513626,476.549622 199.340942,460.597015 
	C198.581665,450.268433 199.395706,439.719666 200.559280,429.388367 
	C201.438751,421.579742 203.952759,413.950714 205.832443,406.264526 
	C206.090073,405.211090 206.887161,404.289520 207.776489,403.177368 
z"/>
<path fill="#DD7B30" opacity="1.000000" stroke="none" 
	d="
M770.120361,760.751709 
	C772.605530,754.465332 775.614441,748.186523 778.253418,741.755859 
	C789.687439,713.893677 792.039917,685.033752 786.332275,655.660767 
	C783.781555,642.534363 779.550842,629.734314 775.872498,616.002014 
	C778.331238,614.919861 781.760620,613.410522 785.562988,611.881226 
	C785.577271,612.403625 785.337158,613.114319 784.842102,613.462646 
	C778.200195,618.136292 777.683716,619.493286 780.668457,627.205200 
	C786.143433,641.351196 788.579529,656.050598 790.206177,671.097412 
	C791.866699,686.457275 790.729980,701.546082 787.837769,716.458923 
	C784.945374,731.372864 779.969849,745.755859 772.287842,759.028015 
	C771.895996,759.705017 771.088074,760.141113 770.120361,760.751709 
z"/>
<path fill="#DD7B30" opacity="1.000000" stroke="none" 
	d="
M876.232666,508.829590 
	C878.609436,498.727142 881.842712,488.599304 883.933228,478.240814 
	C889.346619,451.417542 888.333923,424.860077 879.129089,398.858246 
	C878.910461,398.240814 878.875244,397.558441 878.777344,396.510071 
	C881.198853,402.706482 884.354736,409.133850 885.837891,415.926483 
	C888.883484,429.874878 889.019958,444.007050 888.341187,458.361755 
	C887.608215,473.861603 883.961914,488.459290 879.422302,503.022461 
	C878.800415,505.017365 877.535583,506.811859 876.232666,508.829590 
z"/>
<path fill="#DD7B30" opacity="1.000000" stroke="none" 
	d="
M696.789062,204.853088 
	C690.218750,202.245483 683.698242,198.940247 676.890564,196.406158 
	C649.660339,186.270004 623.063293,189.304596 597.007202,200.871002 
	C593.520691,202.418671 590.161133,204.252411 586.388428,206.008789 
	C590.189087,203.376022 594.011963,199.595367 598.563416,198.212540 
	C610.512512,194.582153 622.653381,191.261368 634.947327,189.159729 
	C655.518555,185.643066 674.322754,192.678070 692.674133,200.941803 
	C694.237061,201.645569 695.372742,203.298096 696.789062,204.853088 
z"/>
<path fill="#DD7B30" opacity="1.000000" stroke="none" 
	d="
M482.820007,197.782455 
	C475.436462,196.095947 468.012115,193.635422 460.399384,192.122940 
	C439.410797,187.952957 419.152740,190.713730 399.720917,199.608093 
	C396.703491,200.989212 393.761688,202.535492 390.430267,204.058563 
	C392.659698,202.136887 394.981567,199.580551 397.869049,198.278275 
	C422.875946,186.999802 448.514893,185.605606 474.631073,194.067673 
	C477.392853,194.962555 480.009338,196.305771 482.820007,197.782455 
z"/>
<path fill="#DD7B30" opacity="1.000000" stroke="none" 
	d="
M786.299805,611.942017 
	C797.168274,604.361450 808.802124,597.301697 819.573975,589.108643 
	C826.779968,583.627808 832.761169,576.536743 839.592773,570.027466 
	C839.446106,571.236450 839.376892,572.945129 838.490784,573.877563 
	C826.247131,586.761414 813.473511,599.037781 797.432434,607.238403 
	C793.955200,609.016113 790.281677,610.410034 786.299805,611.942017 
z"/>
<path fill="#DD7B30" opacity="1.000000" stroke="none" 
	d="
M386.696136,206.033264 
	C375.622192,214.799057 364.657654,224.043350 356.423645,236.071640 
	C354.464142,238.934097 352.554840,241.830902 350.334412,244.888931 
	C351.875854,241.079559 352.857330,236.303268 355.695435,233.256485 
	C363.859283,224.492462 372.722198,216.373032 381.451477,208.150070 
	C382.666626,207.005325 384.675415,206.703018 386.696136,206.033264 
z"/>
<path fill="#DD7B30" opacity="1.000000" stroke="none" 
	d="
M243.058090,567.272461 
	C247.005722,571.110229 250.709473,575.542603 254.877197,579.484375 
	C261.691223,585.928894 268.807404,592.053894 275.948853,598.611694 
	C272.361115,596.699585 268.066803,595.074402 264.990753,592.162354 
	C257.668488,585.230347 250.899948,577.710999 243.982224,570.358826 
	C243.380814,569.719666 243.329422,568.562988 243.058090,567.272461 
z"/>
<path fill="#DD7B30" opacity="1.000000" stroke="none" 
	d="
M561.683594,224.014740 
	C555.619202,231.285095 549.185303,238.537338 542.402405,246.182907 
	C539.238525,242.332413 536.128235,238.547150 532.944824,234.429962 
	C536.227905,236.574570 539.584167,239.051132 543.248596,241.755096 
	C547.550171,236.966187 551.927307,231.926559 556.518188,227.089844 
	C557.790710,225.749237 559.698059,225.011154 561.683594,224.014740 
z"/>
<path fill="#DD7B30" opacity="1.000000" stroke="none" 
	d="
M321.033630,764.306030 
	C328.655701,773.042969 336.253845,782.161621 343.980835,791.587524 
	C341.370178,790.055908 337.933411,788.754150 336.024139,786.275635 
	C330.681458,779.339966 325.970154,771.917908 321.033630,764.306030 
z"/>
<path fill="#DD7B30" opacity="1.000000" stroke="none" 
	d="
M859.776489,363.875366 
	C855.968201,360.830017 852.403992,357.218842 848.463867,354.079529 
	C844.239502,350.713776 839.661377,347.791962 835.066528,344.386688 
	C838.536926,345.818939 842.702209,346.910492 845.703003,349.403687 
	C850.806335,353.643677 855.176697,358.765747 859.776489,363.875366 
z"/>
<path fill="#DD7B30" opacity="1.000000" stroke="none" 
	d="
M864.130249,535.777771 
	C867.651550,527.026428 871.517700,518.194763 875.658569,509.141998 
	C875.247986,511.944702 875.053528,515.196594 873.776794,517.945740 
	C870.966125,523.997620 867.609131,529.795776 864.130249,535.777771 
z"/>
<path fill="#DD7B30" opacity="1.000000" stroke="none" 
	d="
M742.264893,793.937622 
	C747.704956,787.672546 753.517578,781.444946 759.628540,775.064087 
	C759.691284,776.009766 759.829651,777.486633 759.161133,778.147644 
	C753.738770,783.509949 748.165161,788.719238 742.264893,793.937622 
z"/>
<path fill="#DD7B30" opacity="1.000000" stroke="none" 
	d="
M878.878296,395.725983 
	C874.888977,388.998932 870.960388,381.873322 866.969604,374.403320 
	C867.859436,374.570190 869.299377,374.842010 869.686279,375.630463 
	C872.880920,382.141998 875.880432,388.749176 878.878296,395.725983 
z"/>
<path fill="#DD7B30" opacity="1.000000" stroke="none" 
	d="
M237.707077,359.033417 
	C233.286591,364.309906 228.495193,369.560638 223.402969,374.958099 
	C224.292938,372.714630 225.012482,369.872223 226.777451,368.033020 
	C229.967712,364.708557 233.782288,361.983185 237.707077,359.033417 
z"/>
<path fill="#DD7B30" opacity="1.000000" stroke="none" 
	d="
M214.705307,388.054443 
	C212.922455,392.907684 210.777252,397.779083 208.354813,402.866821 
	C208.805267,397.511688 209.451706,391.906250 214.705307,388.054443 
z"/>
<path fill="#DD7B30" opacity="1.000000" stroke="none" 
	d="
M585.663940,206.016510 
	C582.281433,208.674454 578.505371,211.310043 574.390137,214.014130 
	C576.290710,209.305710 580.048462,206.634323 585.663940,206.016510 
z"/>
<path fill="#DD7B30" opacity="1.000000" stroke="none" 
	d="
M360.088165,804.242798 
	C363.982513,806.020691 367.871155,808.167053 371.932800,810.605957 
	C367.466736,810.010071 362.893311,808.996033 360.088165,804.242798 
z"/>
<path fill="#DD7B30" opacity="1.000000" stroke="none" 
	d="
M520.923706,221.756668 
	C517.689392,219.627960 514.461121,217.142395 511.076019,214.360931 
	C515.984009,214.151611 518.611938,217.564072 520.923706,221.756668 
z"/>
<path fill="#DD7B30" opacity="1.000000" stroke="none" 
	d="
M344.092102,792.224609 
	C347.340576,794.343018 350.574188,796.820374 353.959198,799.596130 
	C349.331970,799.425720 346.297668,796.563110 344.092102,792.224609 
z"/>
<path fill="#DD7B30" opacity="1.000000" stroke="none" 
	d="
M496.956482,204.659576 
	C493.407288,203.249741 489.811310,201.492035 486.045837,199.440948 
	C489.554138,200.868927 493.231934,202.590332 496.956482,204.659576 
z"/>
<path fill="#DD7B30" opacity="1.000000" stroke="none" 
	d="
M531.970093,232.699814 
	C529.724915,230.910049 527.502625,228.746689 525.147156,226.279083 
	C529.049133,226.214325 531.012390,228.730331 531.970093,232.699814 
z"/>
<path fill="#DD7B30" opacity="1.000000" stroke="none" 
	d="
M765.258118,767.924500 
	C766.299255,765.611511 767.706543,763.296631 769.426208,760.888977 
	C768.367188,763.171692 766.995728,765.547119 765.258118,767.924500 
z"/>
<path fill="#DD7B30" opacity="1.000000" stroke="none" 
	d="
M854.241211,551.911499 
	C855.374817,549.365234 856.874573,546.823242 858.660889,544.104736 
	C857.500671,546.590698 856.054016,549.253235 854.241211,551.911499 
z"/>
<path fill="#DD7B30" opacity="1.000000" stroke="none" 
	d="
M704.929932,210.737335 
	C702.699646,209.620621 700.465942,208.140900 698.069824,206.369766 
	C700.247070,207.510345 702.586853,208.942337 704.929932,210.737335 
z"/>
<path fill="#DD7B30" opacity="1.000000" stroke="none" 
	d="
M730.298096,802.963745 
	C732.030212,801.297119 734.139893,799.655762 736.581665,797.947388 
	C734.834351,799.583252 732.755005,801.286072 730.298096,802.963745 
z"/>
<path fill="#DD7B30" opacity="1.000000" stroke="none" 
	d="
M569.727417,217.056671 
	C568.311279,218.718246 566.521240,220.343506 564.406738,222.041565 
	C565.839355,220.416351 567.596436,218.718338 569.727417,217.056671 
z"/>
<path fill="#DD7B30" opacity="1.000000" stroke="none" 
	d="
M840.229492,569.906433 
	C841.338318,567.984985 842.812256,566.075867 844.583984,564.023560 
	C843.452698,565.893188 842.023560,567.906006 840.229492,569.906433 
z"/>
<path fill="#DD7B30" opacity="1.000000" stroke="none" 
	d="
M259.976746,344.110504 
	C258.184509,345.444427 255.978348,346.730591 253.425873,348.064514 
	C253.531921,344.026764 257.008331,344.782806 259.976746,344.110504 
z"/>
<path fill="#DD7B30" opacity="1.000000" stroke="none" 
	d="
M268.719543,340.102417 
	C266.640747,341.412567 264.165527,342.664917 261.333740,343.950806 
	C263.425842,342.671112 265.874481,341.357880 268.719543,340.102417 
z"/>
<path fill="#DD7B30" opacity="1.000000" stroke="none" 
	d="
M732.968384,241.696655 
	C731.621399,240.307480 730.297852,238.540253 728.914856,236.441498 
	C730.234192,237.846191 731.613037,239.582382 732.968384,241.696655 
z"/>
<path fill="#DD7B30" opacity="1.000000" stroke="none" 
	d="
M724.269409,806.932007 
	C725.684753,805.603760 727.479797,804.313293 729.608643,802.966003 
	C728.178040,804.262695 726.413513,805.616272 724.269409,806.932007 
z"/>
<path fill="#DD7B30" opacity="1.000000" stroke="none" 
	d="
M232.053131,552.283203 
	C233.398300,553.677429 234.712906,555.451111 236.085480,557.556702 
	C234.769821,556.146606 233.396210,554.404602 232.053131,552.283203 
z"/>
<path fill="#DD7B30" opacity="1.000000" stroke="none" 
	d="
M736.893616,247.748596 
	C735.564514,246.326324 734.291443,244.524750 732.966919,242.386948 
	C734.260193,243.823578 735.604919,245.596451 736.893616,247.748596 
z"/>
<path fill="#DD7B30" opacity="1.000000" stroke="none" 
	d="
M354.099243,800.229858 
	C355.999969,801.012939 357.893829,802.165405 359.941864,803.613037 
	C358.094849,802.805237 356.093628,801.702271 354.099243,800.229858 
z"/>
<path fill="#DD7B30" opacity="1.000000" stroke="none" 
	d="
M864.922424,370.742432 
	C863.586670,369.658203 862.296204,368.198029 860.938843,366.416260 
	C862.237183,367.518616 863.602417,368.942566 864.922424,370.742432 
z"/>
<path fill="#DD7B30" opacity="1.000000" stroke="none" 
	d="
M737.276733,797.947510 
	C738.353638,796.609375 739.805969,795.305908 741.579285,793.936035 
	C740.484253,795.240479 739.068176,796.611328 737.276733,797.947510 
z"/>
<path fill="#DD7B30" opacity="1.000000" stroke="none" 
	d="
M709.912842,214.756607 
	C708.341858,213.968628 706.775513,212.812714 705.061523,211.363052 
	C706.581665,212.175751 708.249573,213.282211 709.912842,214.756607 
z"/>
<path fill="#DD7B30" opacity="1.000000" stroke="none" 
	d="
M725.927856,231.741089 
	C724.590759,230.662155 723.294739,229.206741 721.928467,227.431366 
	C723.228516,228.529129 724.598755,229.946854 725.927856,231.741089 
z"/>
<path fill="#DD7B30" opacity="1.000000" stroke="none" 
	d="
M349.713745,245.070877 
	C349.259094,246.606140 348.444244,248.171402 347.344543,249.906525 
	C347.824280,248.417877 348.588898,246.759369 349.713745,245.070877 
z"/>
<path fill="#DD7B30" opacity="1.000000" stroke="none" 
	d="
M503.892914,208.770142 
	C502.358215,208.296036 500.814728,207.456802 499.101379,206.333511 
	C500.582367,206.834641 502.233276,207.619827 503.892914,208.770142 
z"/>
<path fill="#DD7B30" opacity="1.000000" stroke="none" 
	d="
M218.758942,381.099579 
	C218.297668,382.639801 217.471588,384.195160 216.361282,385.920471 
	C216.849426,384.431854 217.621780,382.773285 218.758942,381.099579 
z"/>
<path fill="#DD7B30" opacity="1.000000" stroke="none" 
	d="
M240.021667,563.311646 
	C241.029678,564.048767 242.018326,565.159851 243.066071,566.588989 
	C242.084229,565.833252 241.043274,564.759460 240.021667,563.311646 
z"/>
<path fill="#DD7B30" opacity="1.000000" stroke="none" 
	d="
M573.699219,214.031219 
	C572.957458,215.034821 571.840515,216.014954 570.407715,217.059052 
	C571.169250,216.084595 572.246704,215.046173 573.699219,214.031219 
z"/>
<path fill="#DD7B30" opacity="1.000000" stroke="none" 
	d="
M276.089600,599.248718 
	C277.330231,599.693481 278.571808,600.510437 279.957520,601.617798 
	C278.764618,601.145813 277.427612,600.383362 276.089600,599.248718 
z"/>
<path fill="#DD7B30" opacity="1.000000" stroke="none" 
	d="
M242.733017,355.065796 
	C241.985947,356.074158 240.861679,357.042633 239.420776,358.073975 
	C240.188034,357.099884 241.271927,356.062897 242.733017,355.065796 
z"/>
<path fill="#DD7B30" opacity="1.000000" stroke="none" 
	d="
M246.728836,352.060699 
	C245.984436,353.070679 244.862656,354.046387 243.423279,355.080139 
	C244.187622,354.100922 245.269531,353.063690 246.728836,352.060699 
z"/>
<path fill="#DD7B30" opacity="1.000000" stroke="none" 
	d="
M236.069366,558.264099 
	C237.080215,559.012024 238.050323,560.137207 239.076385,561.581177 
	C238.097763,560.813721 237.063202,559.727539 236.069366,558.264099 
z"/>
<path fill="#DD7B30" opacity="1.000000" stroke="none" 
	d="
M851.283203,555.934937 
	C851.715515,554.689148 852.517090,553.431274 853.613098,552.036377 
	C853.155884,553.240479 852.404175,554.581665 851.283203,555.934937 
z"/>
<path fill="#DD7B30" opacity="1.000000" stroke="none" 
	d="
M510.926636,213.722733 
	C509.684814,213.292297 508.431793,212.491989 507.030640,211.403717 
	C508.226807,211.861450 509.571136,212.607162 510.926636,213.722733 
z"/>
<path fill="#DD7B30" opacity="1.000000" stroke="none" 
	d="
M848.219727,559.934814 
	C848.686523,558.704285 849.526855,557.465332 850.654907,556.075195 
	C850.159546,557.258118 849.376343,558.592285 848.219727,559.934814 
z"/>
<path fill="#DD7B30" opacity="1.000000" stroke="none" 
	d="
M845.210266,563.882568 
	C845.385071,563.021790 845.920898,562.159485 846.732788,561.150146 
	C846.529663,561.962524 846.050476,562.921814 845.210266,563.882568 
z"/>
<path fill="#DD7B30" opacity="1.000000" stroke="none" 
	d="
M222.770447,375.109131 
	C222.638702,376.000671 222.141205,376.901337 221.364075,377.949829 
	C221.524521,377.104492 221.964615,376.111389 222.770447,375.109131 
z"/>
<path fill="#DD7B30" opacity="1.000000" stroke="none" 
	d="
M862.266785,538.914124 
	C862.348328,538.004272 862.794434,537.068298 863.523315,535.992310 
	C863.414551,536.864197 863.022949,537.876038 862.266785,538.914124 
z"/>
<path fill="#DD7B30" opacity="1.000000" stroke="none" 
	d="
M859.278809,543.922363 
	C859.391724,543.032471 859.865356,542.111328 860.620056,541.043701 
	C860.480591,541.895142 860.060059,542.893127 859.278809,543.922363 
z"/>
<path fill="#DD7B30" opacity="1.000000" stroke="none" 
	d="
M389.724854,204.048294 
	C389.287323,204.715622 388.482513,205.353485 387.364075,206.038757 
	C387.819489,205.397049 388.588562,204.707947 389.724854,204.048294 
z"/>
<path fill="#DD7B30" opacity="1.000000" stroke="none" 
	d="
M727.984070,234.680542 
	C727.302002,234.273621 726.632751,233.499924 725.908325,232.418152 
	C726.567810,232.844635 727.282349,233.579208 727.984070,234.680542 
z"/>
<path fill="#DD7B30" opacity="1.000000" stroke="none" 
	d="
M763.227966,770.890381 
	C763.364197,770.002991 763.865967,769.104919 764.646118,768.058411 
	C764.480835,768.899902 764.037170,769.889771 763.227966,770.890381 
z"/>
<path fill="#DD7B30" opacity="1.000000" stroke="none" 
	d="
M220.754471,378.098541 
	C220.627151,378.985413 220.135910,379.891724 219.366806,380.949158 
	C219.522812,380.106140 219.956680,379.112061 220.754471,378.098541 
z"/>
<path fill="#DD7B30" opacity="1.000000" stroke="none" 
	d="
M866.961609,373.711670 
	C866.275513,373.299988 865.613892,372.519012 864.899231,371.429749 
	C865.559509,371.861786 866.272827,372.602081 866.961609,373.711670 
z"/>
<path fill="#DD7B30" opacity="1.000000" stroke="none" 
	d="
M249.727173,350.053711 
	C249.302017,350.731842 248.507721,351.380920 247.402374,352.080139 
	C247.846893,351.428406 248.602478,350.726532 249.727173,350.053711 
z"/>
<path fill="#DD7B30" opacity="1.000000" stroke="none" 
	d="
M252.721588,348.048615 
	C252.295456,348.728821 251.500977,349.377228 250.392380,350.071014 
	C250.836594,349.416534 251.594910,348.716644 252.721588,348.048615 
z"/>
<path fill="#DD7B30" opacity="1.000000" stroke="none" 
	d="
M760.242188,774.917236 
	C760.319275,774.265015 760.743713,773.599304 761.462891,772.861572 
	C761.368286,773.494263 760.978943,774.198975 760.242188,774.917236 
z"/>
<path fill="#DD7B30" opacity="1.000000" stroke="none" 
	d="
M485.760101,198.864319 
	C485.059326,198.985794 484.195282,198.797287 483.120972,198.346329 
	C483.806061,198.240692 484.701477,198.397507 485.760101,198.864319 
z"/>
<path fill="#DD7B30" opacity="1.000000" stroke="none" 
	d="
M714.758484,218.912842 
	C714.321655,218.983383 713.792419,218.757111 713.126099,218.264053 
	C713.548035,218.203506 714.107056,218.409760 714.758484,218.912842 
z"/>
<path fill="#DD7B30" opacity="1.000000" stroke="none" 
	d="
M762.087769,772.751160 
	C761.981506,772.300720 762.178284,771.748352 762.638000,771.045410 
	C762.730896,771.479675 762.560791,772.064453 762.087769,772.751160 
z"/>
<path fill="#DD7B30" opacity="1.000000" stroke="none" 
	d="
M717.987305,222.720001 
	C717.602478,222.607758 717.203308,222.181656 716.796021,221.454407 
	C717.182922,221.570892 717.577942,221.988525 717.987305,222.720001 
z"/>
<path fill="#DD7B30" opacity="1.000000" stroke="none" 
	d="
M505.759155,209.908813 
	C505.306549,210.017227 504.749115,209.823456 504.045227,209.363281 
	C504.483948,209.266800 505.069122,209.436707 505.759155,209.908813 
z"/>
<path fill="#DD7B30" opacity="1.000000" stroke="none" 
	d="
M861.156860,540.809998 
	C861.059631,540.384094 861.245300,539.819458 861.683838,539.087402 
	C861.770996,539.503662 861.605408,540.087463 861.156860,540.809998 
z"/>
<path fill="#DD7B30" opacity="1.000000" stroke="none" 
	d="
M834.811218,343.846436 
	C834.390503,343.932739 833.835022,343.735443 833.109131,343.289917 
	C833.518005,343.215363 834.097229,343.389130 834.811218,343.846436 
z"/>
<path fill="#DD7B30" opacity="1.000000" stroke="none" 
	d="
M860.922302,365.782867 
	C860.518555,365.665894 860.129517,365.227814 859.750610,364.487000 
	C860.152771,364.610077 860.544922,365.035919 860.922302,365.782867 
z"/>
<path fill="#DD7B30" opacity="1.000000" stroke="none" 
	d="
M215.829407,386.181976 
	C215.917023,386.599426 215.725586,387.158173 215.287384,387.888855 
	C215.210526,387.481598 215.380432,386.902435 215.829407,386.181976 
z"/>
<path fill="#DD7B30" opacity="1.000000" stroke="none" 
	d="
M498.833374,205.806976 
	C498.427490,205.881012 497.878693,205.683685 497.159729,205.242493 
	C497.556549,205.177643 498.123535,205.356628 498.833374,205.806976 
z"/>
<path fill="#DD7B30" opacity="1.000000" stroke="none" 
	d="
M710.883911,215.861313 
	C710.679932,215.928207 710.384338,215.741394 709.993103,215.306091 
	C710.195679,215.240936 710.494019,215.424286 710.883911,215.861313 
z"/>
<path fill="#DD7B30" opacity="1.000000" stroke="none" 
	d="
M506.839783,210.875977 
	C506.609161,210.975861 506.294617,210.821350 505.908508,210.407440 
	C506.143250,210.305878 506.449524,210.463715 506.839783,210.875977 
z"/>
<path fill="#DD7B30" opacity="1.000000" stroke="none" 
	d="
M563.848267,222.136612 
	C563.914978,222.343567 563.730835,222.633942 563.294556,223.005768 
	C563.227417,222.798141 563.412415,222.509079 563.848267,222.136612 
z"/>
<path fill="#DD7B30" opacity="1.000000" stroke="none" 
	d="
M239.140869,562.146606 
	C239.345215,562.087524 239.625992,562.280212 239.986023,562.724426 
	C239.782639,562.783386 239.499969,562.590881 239.140869,562.146606 
z"/>
<path fill="#DD7B30" opacity="1.000000" stroke="none" 
	d="
M238.860199,358.145508 
	C238.924088,358.354126 238.734879,358.640869 238.290970,359.004944 
	C238.226547,358.796021 238.416824,358.509796 238.860199,358.145508 
z"/>
<path fill="#DD7B30" opacity="1.000000" stroke="none" 
	d="
M522.901062,223.805847 
	C522.710876,223.868866 522.420471,223.690292 522.029724,223.270416 
	C522.219910,223.207489 522.510315,223.385864 522.901062,223.805847 
z"/>
<path fill="#DD7B30" opacity="1.000000" stroke="none" 
	d="
M728.854614,235.864410 
	C728.650330,235.918320 728.374329,235.719696 728.024841,235.268585 
	C728.228516,235.214691 728.505798,235.413269 728.854614,235.864410 
z"/>
<path fill="#DD7B30" opacity="1.000000" stroke="none" 
	d="
M562.838074,223.125854 
	C562.897400,223.326553 562.708130,223.609467 562.268799,223.973877 
	C562.208984,223.772934 562.399292,223.490509 562.838074,223.125854 
z"/>
<path fill="#DD7B30" opacity="1.000000" stroke="none" 
	d="
M697.857544,205.851929 
	C697.636841,205.945511 697.324097,205.789459 696.932129,205.377808 
	C697.157166,205.282242 697.461304,205.442276 697.857544,205.851929 
z"/>
<path fill="#DD7B30" opacity="1.000000" stroke="none" 
	d="
M532.858887,233.853897 
	C532.652649,233.916199 532.368042,233.726181 532.002991,233.284271 
	C532.208557,233.222107 532.494446,233.411835 532.858887,233.853897 
z"/>
<path fill="#DD7B30" opacity="1.000000" stroke="none" 
	d="
M521.877930,222.825195 
	C521.673401,222.898666 521.374573,222.726334 520.989014,222.303253 
	C521.196045,222.228119 521.489868,222.403763 521.877930,222.825195 
z"/>
<path fill="#DD7B30" opacity="1.000000" stroke="none" 
	d="
M721.850342,226.863129 
	C721.641235,226.929443 721.353760,226.741867 720.984863,226.301178 
	C721.192993,226.235138 721.482544,226.422195 721.850342,226.863129 
z"/>
<path fill="#DD7B30" opacity="1.000000" stroke="none" 
	d="
M712.897766,217.773315 
	C712.714844,217.835373 712.424316,217.660156 712.023010,217.249390 
	C712.204895,217.187912 712.497498,217.361984 712.897766,217.773315 
z"/>
<path fill="#DD7B30" opacity="1.000000" stroke="none" 
	d="
M715.785767,219.909363 
	C715.536133,220.011642 715.231201,219.851654 714.875977,219.426453 
	C715.127319,219.323166 715.428833,219.485123 715.785767,219.909363 
z"/>
<path fill="#DD7B30" opacity="1.000000" stroke="none" 
	d="
M716.783081,220.909821 
	C716.532532,221.012207 716.228088,220.852188 715.874756,220.426514 
	C716.126953,220.323044 716.428101,220.485229 716.783081,220.909821 
z"/>
<path fill="#DD7B30" opacity="1.000000" stroke="none" 
	d="
M720.862549,225.840698 
	C720.663879,225.902435 720.375732,225.710358 719.986084,225.272278 
	C720.180786,225.213135 720.476868,225.400009 720.862549,225.840698 
z"/>
<path fill="#A76B45" opacity="1.000000" stroke="none" 
	d="
M819.982422,357.940002 
	C846.477722,371.253815 860.239746,393.580048 865.887573,421.298553 
	C872.030701,451.447693 866.747192,480.455933 855.198792,508.577545 
	C846.497803,529.765503 834.237122,548.691772 818.228516,565.006409 
	C802.036682,581.507812 783.154968,594.003540 760.865112,600.930359 
	C751.766785,603.757751 749.651062,608.637878 753.992065,617.135498 
	C766.805664,642.218628 772.381226,668.955933 769.766357,696.828552 
	C766.145813,735.421021 749.503784,767.275818 716.397095,788.873840 
	C700.443298,799.281677 682.444519,804.290344 663.377869,806.187683 
	C635.555542,808.956360 609.334534,802.201660 583.076416,794.621033 
	C571.145081,791.176514 559.066528,787.805725 546.818298,786.070129 
	C540.268188,785.141968 533.048401,787.133484 526.423462,788.902893 
	C511.015930,793.017822 495.925385,798.362244 480.453400,802.184021 
	C452.184052,809.166870 423.893188,809.661438 395.983063,799.902222 
	C362.472198,788.184753 339.581665,765.552673 327.024109,732.457458 
	C321.139923,716.949829 317.748932,700.890442 318.033722,684.232178 
	C318.407745,662.353455 322.773682,641.368042 332.654968,621.680054 
	C337.383545,612.258545 335.280792,607.138000 325.454102,603.719482 
	C297.539978,594.008850 275.569214,576.211792 257.271698,553.470642 
	C240.261887,532.329956 229.317703,508.209473 223.610428,481.846954 
	C217.879242,455.374237 217.616348,429.005341 228.997101,403.639709 
	C241.360001,376.085052 262.692322,359.622528 292.220306,354.045319 
	C306.282318,351.389282 320.347900,352.540771 334.219147,356.203796 
	C344.219269,358.844604 348.823151,354.370178 348.182892,344.049805 
	C346.152252,311.318512 350.516998,279.782501 368.780640,251.682480 
	C386.655762,224.180237 411.684723,208.491165 445.288422,209.147476 
	C462.143616,209.476685 477.564178,215.344971 491.719238,224.215073 
	C508.753540,234.889450 522.372925,249.087326 533.111145,266.080200 
	C538.803833,275.088593 547.014954,274.829163 552.659241,265.785309 
	C569.318054,239.092880 591.723206,219.459305 622.773804,211.732300 
	C651.477295,204.589355 677.006348,211.714203 699.054565,231.435043 
	C720.478760,250.597717 730.638000,275.546234 734.778687,303.119476 
	C736.692688,315.865112 736.505432,328.945923 736.948181,341.885834 
	C737.237244,350.333801 742.170959,354.719635 750.281433,352.299530 
	C774.164917,345.172852 797.218079,347.129974 819.982422,357.940002 
M591.004517,278.992401 
	C591.004517,278.992401 590.969360,278.958405 590.415100,279.263580 
	C589.910156,280.150848 589.405273,281.038086 588.931030,281.995789 
	C588.931030,281.995789 588.948059,281.920868 588.481018,282.126617 
	C588.309082,282.413147 588.137207,282.699707 588.003906,282.995087 
	C588.003906,282.995087 587.976135,282.966156 587.419983,283.267975 
	C586.922363,284.162964 586.424744,285.057953 585.973450,286.010376 
	C585.973450,286.010376 585.951233,285.940552 585.451172,286.271088 
	C585.262878,286.825684 585.074646,287.380280 584.997925,287.935974 
	C584.997925,287.935974 584.888123,287.910187 584.277527,288.201447 
	C583.474365,289.770905 582.671204,291.340363 581.953125,293.003204 
	C581.953125,293.003204 581.879333,292.908813 581.268372,293.211334 
	C580.801636,294.444305 580.334900,295.677277 579.893311,296.858551 
	C579.893311,296.858551 579.836548,296.868011 579.177856,297.015778 
	C577.811829,299.675995 576.445801,302.336212 574.959167,305.410828 
	C574.959167,305.410828 574.923584,305.840942 574.413696,306.279480 
	C573.931335,307.516724 573.448975,308.753998 572.869507,310.356628 
	C572.869507,310.356628 572.870239,310.734711 572.308044,311.196381 
	C571.834167,312.777985 571.360291,314.359589 570.948120,316.019379 
	C570.948120,316.019379 570.912842,315.926636 570.343018,316.356323 
	C570.048645,316.949677 569.685791,317.519226 569.469910,318.139862 
	C562.353882,338.596466 559.363220,359.590729 562.209900,381.134338 
	C563.636292,391.929413 565.698792,402.699646 571.962524,411.989441 
	C571.962524,411.989441 571.925049,412.050507 572.018311,412.755981 
	C574.005676,415.850342 575.993042,418.944702 578.134277,422.474274 
	C578.288208,422.756622 578.513977,422.958557 578.988281,423.722260 
	C580.315918,425.172089 581.643616,426.621948 583.242493,428.614441 
	C584.137390,429.418732 585.032288,430.223022 586.232605,431.617249 
	C587.803406,432.771118 589.374146,433.925018 591.010681,435.028351 
	C591.010681,435.028351 590.933655,435.056854 591.240417,435.614410 
	C592.154297,436.091003 593.068115,436.567596 594.339233,437.505280 
	C594.875122,437.714691 595.411011,437.924103 596.189148,438.523804 
	C596.408875,438.763123 596.681091,438.888397 597.408997,439.034271 
	C597.408997,439.034271 597.831726,439.078796 598.310547,439.609467 
	C606.749817,444.226410 615.895081,445.909088 625.294189,444.800995 
	C633.487915,443.834961 641.584778,441.882416 648.020813,436.013916 
	C648.020813,436.013916 648.089050,436.123596 648.815796,436.127899 
	C654.595520,431.440186 660.375183,426.752441 666.650574,421.795807 
	C667.104553,421.211151 667.558533,420.626495 668.593506,419.740692 
	C669.425110,418.516266 670.256714,417.291840 671.057373,415.999786 
	C671.057373,415.999786 671.045959,416.073242 671.521912,415.878571 
	C671.692383,415.589050 671.862915,415.299530 671.996033,415.003357 
	C671.996033,415.003357 672.020142,415.032898 672.609619,414.703491 
	C677.385315,406.361084 682.982727,398.374603 686.779968,389.608398 
	C697.449890,364.975708 700.462646,339.081940 696.849243,312.528595 
	C695.309875,301.216461 693.458740,289.854736 687.041687,280.010986 
	C687.041687,280.010986 687.079773,279.947052 686.994629,279.239319 
	C685.015442,276.137390 683.036316,273.035492 681.031738,270.011139 
	C681.031738,270.011139 681.080139,269.944458 680.975281,269.258514 
	C676.049377,264.440704 671.725098,258.715424 666.084534,254.975601 
	C649.318054,243.859055 628.425293,246.739868 612.207397,258.955017 
	C611.792542,259.273285 611.377747,259.591553 610.321106,260.030609 
	C609.190491,260.998596 608.059875,261.966553 607.009766,262.954529 
	C607.009766,262.954529 606.934937,262.913940 606.263977,263.030273 
	C603.495850,265.677429 600.727661,268.324615 598.000000,271.000000 
	C598.000000,271.000000 597.971863,270.959442 597.374573,271.253540 
	C595.552429,273.479004 593.730225,275.704468 591.942383,277.999329 
	C591.942383,277.999329 591.953064,277.922638 591.481201,278.123566 
	C591.306458,278.409698 591.131775,278.695831 591.004517,278.992401 
M421.140411,766.517883 
	C431.727448,766.773193 442.567657,768.591553 452.843719,766.927002 
	C469.317352,764.258667 485.490295,759.554443 501.652771,755.200012 
	C515.282104,751.527893 528.649902,746.749329 543.026917,747.014465 
	C561.195068,747.349365 578.371704,752.651489 595.587280,757.698242 
	C617.644104,764.164307 639.762207,770.279968 663.132751,766.992065 
	C684.385681,764.002075 702.854797,755.688538 715.274414,737.374756 
	C734.104309,709.608276 735.652039,679.639221 724.798218,648.711426 
	C716.559814,625.236267 698.998474,608.875977 680.962830,592.814697 
	C668.811340,581.993408 656.792847,570.797607 646.257568,558.452698 
	C636.593384,547.128479 628.973145,534.056030 620.493591,521.725464 
	C607.372925,502.646210 589.956726,489.277740 567.484070,483.407043 
	C539.914124,476.204742 513.409790,479.317963 488.548981,493.715607 
	C473.117706,502.652374 462.540283,516.323059 453.108398,530.950745 
	C441.381958,549.136963 429.809540,567.355713 414.184692,582.655090 
	C404.206940,592.424988 394.633545,602.645020 385.363647,613.093262 
	C364.256439,636.883789 353.527283,664.361511 357.970154,696.496704 
	C363.233429,734.566162 383.572205,758.740479 421.140411,766.517883 
M387.060883,344.196655 
	C387.705170,349.129578 388.120605,354.105194 389.031464,358.988373 
	C394.252441,386.977875 405.054596,411.901337 427.353943,430.951569 
	C450.669769,450.870209 482.805939,449.713104 503.067871,427.235352 
	C516.323242,412.530396 521.690369,394.448975 522.928894,375.099426 
	C524.540527,349.918823 520.389343,325.759613 509.178772,302.943481 
	C500.222473,284.715332 488.744690,268.641449 471.162384,257.758911 
	C459.103760,250.295242 446.248840,245.771149 431.852905,249.549026 
	C413.919922,254.255127 403.216064,266.900330 396.139069,283.146088 
	C387.777466,302.340637 386.106964,322.614624 387.060883,344.196655 
M724.927063,412.439026 
	C713.993103,421.461273 705.527771,432.523560 698.763062,444.863403 
	C685.808105,468.495605 678.767090,493.451233 684.029236,520.557861 
	C689.538757,548.939087 709.922485,566.048584 736.539062,564.751648 
	C757.492859,563.730530 774.682007,553.407410 789.175293,539.012634 
	C807.756409,520.557678 820.073059,498.274200 826.016052,472.691833 
	C830.412109,453.768738 831.495361,434.829498 823.938965,416.338196 
	C815.649048,396.051971 797.606506,386.414886 778.712036,387.335114 
	C757.886841,388.349365 740.628235,398.162506 724.927063,412.439026 
M270.846893,501.578583 
	C276.446838,514.121887 283.588623,525.712463 292.721405,535.981323 
	C304.054901,548.724792 317.094177,559.253418 333.676147,564.291260 
	C348.473511,568.786987 363.255157,569.248901 376.988800,560.651917 
	C394.094604,549.944031 401.342041,533.411621 402.952209,514.132080 
	C404.881836,491.027771 398.904449,469.519958 387.650940,449.538208 
	C373.045135,423.604126 352.878937,403.864044 323.740875,394.780396 
	C309.836517,390.445831 296.213074,390.453308 283.315887,398.158478 
	C266.077454,408.457184 260.448151,425.155731 259.103912,443.757782 
	C257.658722,463.757080 262.513458,482.685516 270.846893,501.578583 
z"/>
<path fill="#323C3D" opacity="1.000000" stroke="none" 
	d="
M420.734283,766.385071 
	C383.572205,758.740479 363.233429,734.566162 357.970154,696.496704 
	C353.527283,664.361511 364.256439,636.883789 385.363647,613.093262 
	C394.633545,602.645020 404.206940,592.424988 414.184692,582.655090 
	C429.809540,567.355713 441.381958,549.136963 453.108398,530.950745 
	C462.540283,516.323059 473.117706,502.652374 488.548981,493.715607 
	C513.409790,479.317963 539.914124,476.204742 567.484070,483.407043 
	C589.956726,489.277740 607.372925,502.646210 620.493591,521.725464 
	C628.973145,534.056030 636.593384,547.128479 646.257568,558.452698 
	C656.792847,570.797607 668.811340,581.993408 680.962830,592.814697 
	C698.998474,608.875977 716.559814,625.236267 724.798218,648.711426 
	C735.652039,679.639221 734.104309,709.608276 715.274414,737.374756 
	C702.854797,755.688538 684.385681,764.002075 663.132751,766.992065 
	C639.762207,770.279968 617.644104,764.164307 595.587280,757.698242 
	C578.371704,752.651489 561.195068,747.349365 543.026917,747.014465 
	C528.649902,746.749329 515.282104,751.527893 501.652771,755.200012 
	C485.490295,759.554443 469.317352,764.258667 452.843719,766.927002 
	C442.567657,768.591553 431.727448,766.773193 420.734283,766.385071 
z"/>
<path fill="#333C3D" opacity="1.000000" stroke="none" 
	d="
M387.051727,343.723755 
	C386.106964,322.614624 387.777466,302.340637 396.139069,283.146088 
	C403.216064,266.900330 413.919922,254.255127 431.852905,249.549026 
	C446.248840,245.771149 459.103760,250.295242 471.162384,257.758911 
	C488.744690,268.641449 500.222473,284.715332 509.178772,302.943481 
	C520.389343,325.759613 524.540527,349.918823 522.928894,375.099426 
	C521.690369,394.448975 516.323242,412.530396 503.067871,427.235352 
	C482.805939,449.713104 450.669769,450.870209 427.353943,430.951569 
	C405.054596,411.901337 394.252441,386.977875 389.031464,358.988373 
	C388.120605,354.105194 387.705170,349.129578 387.051727,343.723755 
z"/>
<path fill="#323C3E" opacity="1.000000" stroke="none" 
	d="
M610.962952,259.909851 
	C611.377747,259.591553 611.792542,259.273285 612.885010,258.957397 
	C614.820862,258.669403 616.357483,258.745728 617.295593,258.033600 
	C631.525452,247.231903 656.397217,246.653198 670.778198,261.125977 
	C673.953979,264.322052 677.632874,267.018158 681.080139,269.944458 
	C681.080139,269.944458 681.031738,270.011139 681.024414,270.354065 
	C683.038025,273.780365 685.058899,276.863708 687.079773,279.947052 
	C687.079773,279.947052 687.041687,280.010986 687.024902,280.387634 
	C687.194092,281.898987 687.311401,283.050079 687.576843,284.165985 
	C690.084290,294.709137 693.289734,305.139557 694.982666,315.810516 
	C697.433899,331.261505 696.455200,346.811401 693.409546,362.165710 
	C689.960876,379.551727 683.407471,395.671478 673.432190,410.382874 
	C672.563965,411.663300 672.472473,413.470428 672.020142,415.032898 
	C672.020142,415.032898 671.996033,415.003357 671.780884,415.110657 
	C671.392517,415.503052 671.219238,415.788147 671.045959,416.073242 
	C671.045959,416.073242 671.057373,415.999786 670.705444,416.042908 
	C669.573120,417.404633 668.792847,418.723236 668.012512,420.041870 
	C667.558533,420.626495 667.104553,421.211151 666.023071,421.907593 
	C659.626770,426.720764 653.857910,431.422180 648.089050,436.123596 
	C648.089050,436.123596 648.020813,436.013916 647.667480,436.029358 
	C646.674133,436.164764 645.948914,436.129578 645.406677,436.427460 
	C632.844360,443.327728 619.705933,445.050354 605.869995,441.009155 
	C603.228027,440.237488 600.513062,439.715820 597.831726,439.078796 
	C597.831726,439.078796 597.408997,439.034271 597.197266,438.736267 
	C596.639282,438.336700 596.293091,438.235138 595.946899,438.133545 
	C595.411011,437.924103 594.875122,437.714691 594.117554,436.920502 
	C592.908508,435.909424 591.921082,435.483154 590.933655,435.056854 
	C590.933655,435.056854 591.010681,435.028351 590.965942,434.689362 
	C589.256531,433.242676 587.591858,432.134979 585.927246,431.027313 
	C585.032288,430.223022 584.137390,429.418732 583.117737,427.967285 
	C581.599243,425.906769 580.205444,424.493439 578.811707,423.080109 
	C578.513977,422.958557 578.288208,422.756622 578.063843,421.878784 
	C575.970581,418.205688 573.947815,415.128113 571.925049,412.050507 
	C571.925049,412.050507 571.962524,411.989441 571.977051,411.622437 
	C571.654785,409.826141 571.552246,408.287537 570.944092,406.984985 
	C566.200684,396.825500 563.982483,385.964508 563.141785,374.963715 
	C561.977112,359.721619 563.969666,344.637177 567.581726,329.784882 
	C568.704407,325.168457 569.803162,320.546234 570.912842,315.926636 
	C570.912842,315.926636 570.948120,316.019379 571.265869,315.838348 
	C572.012512,314.016449 572.441345,312.375580 572.870239,310.734680 
	C572.870239,310.734711 572.869507,310.356628 573.287720,310.112915 
	C574.111816,308.526459 574.517700,307.183685 574.923584,305.840942 
	C574.923584,305.840942 574.959167,305.410828 575.356567,305.151550 
	C577.114807,302.217499 578.475708,299.542755 579.836548,296.868011 
	C579.836548,296.868011 579.893311,296.858551 580.183960,296.736755 
	C580.942871,295.379578 581.411072,294.144196 581.879272,292.908813 
	C581.879333,292.908813 581.953125,293.003204 582.248291,292.847717 
	C583.324951,291.098236 584.106567,289.504211 584.888184,287.910217 
	C584.888123,287.910187 584.997925,287.935974 585.219177,287.797119 
	C585.610718,287.085724 585.780945,286.513123 585.951233,285.940552 
	C585.951233,285.940552 585.973450,286.010376 586.306030,285.951141 
	C587.084473,284.916656 587.530334,283.941406 587.976135,282.966156 
	C587.976135,282.966156 588.003906,282.995087 588.218384,282.886841 
	C588.604614,282.492676 588.776306,282.206757 588.948059,281.920837 
	C588.948059,281.920868 588.931030,281.995789 589.274536,281.939148 
	C590.068481,280.907776 590.518921,279.933075 590.969360,278.958405 
	C590.969360,278.958405 591.004517,278.992401 591.216431,278.885376 
	C591.603210,278.493103 591.778137,278.207886 591.953064,277.922638 
	C591.953064,277.922638 591.942383,277.999329 592.283569,277.961182 
	C594.407104,275.601837 596.189514,273.280640 597.971863,270.959442 
	C597.971863,270.959442 598.000000,271.000000 598.349060,270.996613 
	C601.443726,268.300140 604.189331,265.607025 606.934937,262.913940 
	C606.934937,262.913940 607.009766,262.954529 607.343018,262.967316 
	C608.771851,261.956696 609.867371,260.933289 610.962952,259.909851 
z"/>
<path fill="#333C3D" opacity="1.000000" stroke="none" 
	d="
M725.189209,412.196716 
	C740.628235,398.162506 757.886841,388.349365 778.712036,387.335114 
	C797.606506,386.414886 815.649048,396.051971 823.938965,416.338196 
	C831.495361,434.829498 830.412109,453.768738 826.016052,472.691833 
	C820.073059,498.274200 807.756409,520.557678 789.175293,539.012634 
	C774.682007,553.407410 757.492859,563.730530 736.539062,564.751648 
	C709.922485,566.048584 689.538757,548.939087 684.029236,520.557861 
	C678.767090,493.451233 685.808105,468.495605 698.763062,444.863403 
	C705.527771,432.523560 713.993103,421.461273 725.189209,412.196716 
z"/>
<path fill="#333C3D" opacity="1.000000" stroke="none" 
	d="
M270.681458,501.236328 
	C262.513458,482.685516 257.658722,463.757080 259.103912,443.757782 
	C260.448151,425.155731 266.077454,408.457184 283.315887,398.158478 
	C296.213074,390.453308 309.836517,390.445831 323.740875,394.780396 
	C352.878937,403.864044 373.045135,423.604126 387.650940,449.538208 
	C398.904449,469.519958 404.881836,491.027771 402.952209,514.132080 
	C401.342041,533.411621 394.094604,549.944031 376.988800,560.651917 
	C363.255157,569.248901 348.473511,568.786987 333.676147,564.291260 
	C317.094177,559.253418 304.054901,548.724792 292.721405,535.981323 
	C283.588623,525.712463 276.446838,514.121887 270.681458,501.236328 
z"/>
<path fill="#46392D" opacity="1.000000" stroke="none" 
	d="
M672.314880,414.868195 
	C672.472473,413.470428 672.563965,411.663300 673.432190,410.382874 
	C683.407471,395.671478 689.960876,379.551727 693.409546,362.165710 
	C696.455200,346.811401 697.433899,331.261505 694.982666,315.810516 
	C693.289734,305.139557 690.084290,294.709137 687.576843,284.165985 
	C687.311401,283.050079 687.194092,281.898987 687.031128,280.351349 
	C693.458740,289.854736 695.309875,301.216461 696.849243,312.528595 
	C700.462646,339.081940 697.449890,364.975708 686.779968,389.608398 
	C682.982727,398.374603 677.385315,406.361084 672.314880,414.868195 
z"/>
<path fill="#46392D" opacity="1.000000" stroke="none" 
	d="
M570.627930,316.141479 
	C569.803162,320.546234 568.704407,325.168457 567.581726,329.784882 
	C563.969666,344.637177 561.977112,359.721619 563.141785,374.963715 
	C563.982483,385.964508 566.200684,396.825500 570.944092,406.984985 
	C571.552246,408.287537 571.654785,409.826141 571.969849,411.656860 
	C565.698792,402.699646 563.636292,391.929413 562.209900,381.134338 
	C559.363220,359.590729 562.353882,338.596466 569.469910,318.139862 
	C569.685791,317.519226 570.048645,316.949677 570.627930,316.141479 
z"/>
<path fill="#46392D" opacity="1.000000" stroke="none" 
	d="
M681.027710,269.601501 
	C677.632874,267.018158 673.953979,264.322052 670.778198,261.125977 
	C656.397217,246.653198 631.525452,247.231903 617.295593,258.033600 
	C616.357483,258.745728 614.820862,258.669403 613.152588,258.916809 
	C628.425293,246.739868 649.318054,243.859055 666.084534,254.975601 
	C671.725098,258.715424 676.049377,264.440704 681.027710,269.601501 
z"/>
<path fill="#46392D" opacity="1.000000" stroke="none" 
	d="
M598.071167,439.344116 
	C600.513062,439.715820 603.228027,440.237488 605.869995,441.009155 
	C619.705933,445.050354 632.844360,443.327728 645.406677,436.427460 
	C645.948914,436.129578 646.674133,436.164764 647.698547,436.082336 
	C641.584778,441.882416 633.487915,443.834961 625.294189,444.800995 
	C615.895081,445.909088 606.749817,444.226410 598.071167,439.344116 
z"/>
<path fill="#46392D" opacity="1.000000" stroke="none" 
	d="
M648.452393,436.125763 
	C653.857910,431.422180 659.626770,426.720764 665.775269,422.042053 
	C660.375183,426.752441 654.595520,431.440186 648.452393,436.125763 
z"/>
<path fill="#46392D" opacity="1.000000" stroke="none" 
	d="
M606.599487,262.972107 
	C604.189331,265.607025 601.443726,268.300140 598.328796,270.982513 
	C600.727661,268.324615 603.495850,265.677429 606.599487,262.972107 
z"/>
<path fill="#46392D" opacity="1.000000" stroke="none" 
	d="
M687.037231,279.593201 
	C685.058899,276.863708 683.038025,273.780365 681.037109,270.315308 
	C683.036316,273.035492 685.015442,276.137390 687.037231,279.593201 
z"/>
<path fill="#46392D" opacity="1.000000" stroke="none" 
	d="
M571.971680,412.403259 
	C573.947815,415.128113 575.970581,418.205688 577.986877,421.661163 
	C575.993042,418.944702 574.005676,415.850342 571.971680,412.403259 
z"/>
<path fill="#46392D" opacity="1.000000" stroke="none" 
	d="
M597.673218,271.106506 
	C596.189514,273.280640 594.407104,275.601837 592.266418,277.926514 
	C593.730225,275.704468 595.552429,273.479004 597.673218,271.106506 
z"/>
<path fill="#46392D" opacity="1.000000" stroke="none" 
	d="
M579.507202,296.941895 
	C578.475708,299.542755 577.114807,302.217499 575.416870,304.944336 
	C576.445801,302.336212 577.811829,299.675995 579.507202,296.941895 
z"/>
<path fill="#46392D" opacity="1.000000" stroke="none" 
	d="
M586.079956,431.322266 
	C587.591858,432.134979 589.256531,433.242676 590.933044,434.714630 
	C589.374146,433.925018 587.803406,432.771118 586.079956,431.322266 
z"/>
<path fill="#46392D" opacity="1.000000" stroke="none" 
	d="
M578.900024,423.401184 
	C580.205444,424.493439 581.599243,425.906769 582.982117,427.695923 
	C581.643616,426.621948 580.315918,425.172089 578.900024,423.401184 
z"/>
<path fill="#46392D" opacity="1.000000" stroke="none" 
	d="
M584.582886,288.055847 
	C584.106567,289.504211 583.324951,291.098236 582.205688,292.801025 
	C582.671204,291.340363 583.474365,289.770905 584.582886,288.055847 
z"/>
<path fill="#46392D" opacity="1.000000" stroke="none" 
	d="
M668.302979,419.891296 
	C668.792847,418.723236 669.573120,417.404633 670.720886,416.076721 
	C670.256714,417.291840 669.425110,418.516266 668.302979,419.891296 
z"/>
<path fill="#46392D" opacity="1.000000" stroke="none" 
	d="
M572.589111,310.965515 
	C572.441345,312.375580 572.012512,314.016449 571.235046,315.799255 
	C571.360291,314.359589 571.834167,312.777985 572.589111,310.965515 
z"/>
<path fill="#46392D" opacity="1.000000" stroke="none" 
	d="
M610.642029,259.970215 
	C609.867371,260.933289 608.771851,261.956696 607.302734,262.957306 
	C608.059875,261.966553 609.190491,260.998596 610.642029,259.970215 
z"/>
<path fill="#46392D" opacity="1.000000" stroke="none" 
	d="
M574.668640,306.060211 
	C574.517700,307.183685 574.111816,308.526459 573.336304,309.930237 
	C573.448975,308.753998 573.931335,307.516724 574.668640,306.060211 
z"/>
<path fill="#46392D" opacity="1.000000" stroke="none" 
	d="
M591.087036,435.335632 
	C591.921082,435.483154 592.908508,435.909424 593.938965,436.689941 
	C593.068115,436.567596 592.154297,436.091003 591.087036,435.335632 
z"/>
<path fill="#46392D" opacity="1.000000" stroke="none" 
	d="
M581.573853,293.060059 
	C581.411072,294.144196 580.942871,295.379578 580.171387,296.762604 
	C580.334900,295.677277 580.801636,294.444305 581.573853,293.060059 
z"/>
<path fill="#46392D" opacity="1.000000" stroke="none" 
	d="
M587.698059,283.117065 
	C587.530334,283.941406 587.084473,284.916656 586.282837,285.922424 
	C586.424744,285.057953 586.922363,284.162964 587.698059,283.117065 
z"/>
<path fill="#46392D" opacity="1.000000" stroke="none" 
	d="
M590.692261,279.110992 
	C590.518921,279.933075 590.068481,280.907776 589.259216,281.903931 
	C589.405273,281.038086 589.910156,280.150848 590.692261,279.110992 
z"/>
<path fill="#46392D" opacity="1.000000" stroke="none" 
	d="
M585.701172,286.105835 
	C585.780945,286.513123 585.610718,287.085724 585.163391,287.796570 
	C585.074646,287.380280 585.262878,286.825684 585.701172,286.105835 
z"/>
<path fill="#46392D" opacity="1.000000" stroke="none" 
	d="
M596.067993,438.328674 
	C596.293091,438.235138 596.639282,438.336700 596.995605,438.668945 
	C596.681091,438.888397 596.408875,438.763123 596.067993,438.328674 
z"/>
<path fill="#46392D" opacity="1.000000" stroke="none" 
	d="
M591.717163,278.023102 
	C591.778137,278.207886 591.603210,278.493103 591.192627,278.880157 
	C591.131775,278.695831 591.306458,278.409698 591.717163,278.023102 
z"/>
<path fill="#46392D" opacity="1.000000" stroke="none" 
	d="
M588.714539,282.023743 
	C588.776306,282.206757 588.604614,282.492676 588.199097,282.882416 
	C588.137207,282.699707 588.309082,282.413147 588.714539,282.023743 
z"/>
<path fill="#46392D" opacity="1.000000" stroke="none" 
	d="
M671.283936,415.975891 
	C671.219238,415.788147 671.392517,415.503052 671.799561,415.113953 
	C671.862915,415.299530 671.692383,415.589050 671.283936,415.975891 
z"/>
</svg>
